{"glyphs":{"0":{"ha":857,"x_min":67,"x_max":854,"o":"m 854 635 q 782 278 854 436 q 687 127 743 192 q 546 23 631 63 q 357 -17 461 -17 q 142 88 218 -17 q 67 353 67 192 q 203 814 67 642 q 567 986 339 986 q 781 883 707 986 q 854 635 854 781 m 407 90 q 501 203 458 90 q 565 460 544 315 q 586 729 586 604 q 524 881 586 881 q 442 821 479 881 q 383 672 404 761 q 339 285 339 481 q 407 90 339 90 z "},"1":{"ha":553,"x_min":40,"x_max":543,"o":"m 131 -10 l 122 -10 q 160 281 122 108 q 237 606 199 453 q 275 832 275 760 q 125 713 186 775 q 78 753 99 726 q 49 800 57 781 l 40 819 l 286 968 q 528 986 392 986 q 543 892 543 949 q 506 677 543 835 q 432 334 469 519 q 394 24 394 149 q 131 -10 332 -10 z "},"2":{"ha":738,"x_min":-39,"x_max":742,"o":"m 553 -32 q 443 -1 507 -32 q 326 63 379 29 q 250 99 272 96 q 144 17 196 50 q 75 -17 93 -17 q 9 33 57 -17 q -39 111 -39 83 q 11 194 -39 139 q 126 249 61 249 q 207 240 149 249 q 381 454 301 319 q 461 701 461 589 q 431 794 461 761 q 354 828 400 828 q 258 797 308 828 q 168 706 208 765 l 85 746 q 222 913 122 839 q 453 986 321 986 q 661 918 586 986 q 736 750 736 850 q 695 597 736 679 q 589 442 654 515 q 346 210 468 306 q 581 165 492 165 q 624 179 607 165 q 668 243 640 193 l 742 218 q 679 25 722 81 q 553 -32 636 -32 z "},"3":{"ha":713,"x_min":-11,"x_max":708,"o":"m 228 927 q 272 957 228 927 q 439 986 315 986 q 635 926 563 986 q 708 778 708 867 q 642 622 708 689 q 475 533 576 556 q 639 456 576 517 q 701 297 701 394 q 586 74 701 164 q 315 -17 471 -17 q 91 37 193 -17 q -11 181 -11 90 q 29 288 -11 251 q 71 290 46 290 q 253 235 185 290 l 235 92 q 283 76 250 76 q 388 147 346 76 q 429 309 429 217 q 388 440 429 401 q 260 479 347 479 l 204 476 l 211 565 q 347 599 299 572 q 446 749 446 653 q 419 826 446 799 q 351 853 392 853 q 263 822 310 853 q 181 736 217 792 l 97 775 q 228 927 140 868 z "},"4":{"ha":807,"x_min":-25,"x_max":840,"o":"m 675 181 q 606 186 639 181 q 593 29 593 97 q 332 -7 524 -7 l 314 -7 q 350 238 314 67 q 225 244 296 244 q 105 231 154 244 q 53 217 56 217 q 4 248 32 217 q -24 301 -24 279 q -8 347 -25 324 q 438 963 300 781 q 717 986 546 982 q 738 907 738 958 q 724 783 738 856 q 682 584 711 711 q 639 386 653 457 q 702 383 672 383 q 746 404 732 383 l 768 442 l 840 415 q 779 229 814 274 q 675 181 742 181 m 203 411 q 256 413 218 413 q 386 407 294 413 q 472 828 471 736 q 203 411 351 679 z "},"5":{"ha":715,"x_min":7,"x_max":751,"o":"m 303 971 l 589 985 q 743 956 679 985 q 751 906 751 938 q 717 764 751 843 l 704 738 q 559 781 619 781 q 297 771 499 781 q 269 643 281 710 q 578 558 460 633 q 696 334 696 483 q 583 82 696 185 q 310 -21 469 -21 q 100 35 193 -21 q 7 183 7 92 q 33 286 7 243 q 81 290 61 290 q 267 224 200 290 l 244 86 q 286 71 267 71 q 388 148 350 71 q 426 334 426 225 q 362 497 426 443 q 183 550 297 550 l 143 553 l 110 597 q 152 781 124 646 q 197 975 181 915 q 303 971 240 971 z "},"6":{"ha":813,"x_min":67,"x_max":814,"o":"m 543 885 q 433 794 479 885 q 364 557 388 704 q 514 589 439 589 q 708 521 629 589 q 786 323 786 453 q 674 88 786 193 q 397 -17 563 -17 q 67 351 67 -17 q 205 800 67 614 q 551 986 343 986 q 741 940 668 986 q 814 799 814 894 q 772 699 814 740 q 732 694 747 694 q 550 757 614 694 l 571 875 q 543 885 568 885 m 510 317 q 510 358 510 317 q 491 435 510 399 q 429 472 472 472 q 349 447 386 472 q 336 283 336 369 q 401 89 336 89 q 482 162 454 89 q 510 317 510 235 z "},"7":{"ha":639,"x_min":74,"x_max":733,"o":"m 147 -10 l 113 -10 q 160 204 126 103 q 465 751 224 392 q 308 764 311 764 q 107 719 190 764 q 74 893 74 811 l 81 958 q 263 985 149 985 q 406 974 311 985 q 566 964 500 964 q 710 975 632 964 l 733 911 l 669 817 q 460 373 533 599 q 388 26 388 147 q 290 2 371 14 q 147 -10 210 -10 z "},"8":{"ha":713,"x_min":51,"x_max":717,"o":"m 321 -17 q 128 43 206 -17 q 51 196 51 103 q 276 503 51 339 q 165 753 165 654 q 259 919 165 853 q 465 985 353 985 q 647 939 576 985 q 717 799 717 893 q 563 544 717 685 q 663 390 631 453 q 694 272 694 328 q 582 63 694 143 q 321 -17 469 -17 m 218 203 q 251 118 218 147 q 330 89 285 89 q 410 115 375 89 q 446 183 446 140 q 342 401 446 249 q 218 203 218 304 m 417 808 q 492 639 417 746 q 553 717 529 671 q 578 803 578 764 q 555 862 578 843 q 501 881 532 881 q 443 863 469 881 q 417 808 417 846 z "},"9":{"ha":778,"x_min":32,"x_max":775,"o":"m 99 204 q 275 121 192 121 q 485 399 450 121 q 331 372 406 372 q 131 447 203 372 q 60 640 60 522 q 168 888 60 789 q 442 986 276 986 q 775 597 775 986 q 724 301 775 439 q 567 73 672 163 q 325 -17 463 -17 q 32 136 133 -17 l 99 204 m 418 493 q 494 518 457 493 q 507 686 507 596 q 438 881 507 881 q 362 805 390 881 q 333 639 333 729 q 418 493 333 493 z "}," ":{"ha":278,"x_min":0,"x_max":0,"o":""},"!":{"ha":464,"x_min":49,"x_max":460,"o":"m 172 -22 q 142 -22 172 -22 q 81 8 113 -22 q 49 92 49 39 q 92 184 49 144 q 195 224 135 224 q 288 191 256 224 q 321 107 321 158 q 276 17 321 56 q 172 -22 232 -22 m 460 926 q 394 592 460 825 q 299 310 328 360 q 217 294 256 294 q 150 300 178 294 q 186 832 186 640 l 178 953 q 442 1000 331 1000 q 460 926 460 978 z "},"\"":{"ha":546,"x_min":126,"x_max":564,"o":"m 206 1017 q 332 936 332 1017 q 290 783 332 896 q 213 593 249 671 l 126 608 l 153 1014 q 206 1017 189 1017 m 438 1017 q 564 936 564 1017 q 522 783 564 896 q 444 593 481 671 l 358 608 l 385 1014 q 438 1017 421 1017 z "},"#":{"ha":853,"x_min":24,"x_max":851,"o":"m 418 636 q 522 633 440 633 q 539 780 539 747 q 538 818 539 813 q 711 858 643 858 q 718 795 718 835 q 694 635 718 756 q 847 639 783 635 q 851 578 851 611 q 765 485 851 485 q 674 489 728 485 q 660 415 669 463 q 647 343 651 368 q 807 356 719 343 q 811 293 811 301 q 725 206 811 206 q 628 208 665 206 q 603 14 610 89 q 439 -15 563 -15 l 424 -15 q 458 218 425 13 q 392 219 446 219 l 338 219 q 307 19 313 78 q 160 -15 263 -15 l 131 -15 q 171 217 135 43 q 43 199 96 213 q 24 349 28 269 q 194 361 104 361 l 199 361 q 213 423 203 381 q 229 494 224 465 q 86 479 124 489 q 60 631 63 553 q 236 640 146 640 l 251 640 q 269 777 269 742 q 268 818 269 813 q 436 858 371 858 q 444 805 444 835 q 418 636 444 775 m 479 354 l 506 499 q 422 500 492 500 l 394 500 q 377 430 389 475 q 360 358 365 385 l 479 354 z "},"$":{"ha":701,"x_min":24,"x_max":675,"o":"m 656 247 q 567 73 656 146 q 350 -12 478 0 q 338 -168 342 -68 q 221 -149 283 -168 l 246 -12 q 88 42 151 -1 q 24 125 24 86 q 103 241 43 178 q 217 307 164 304 q 338 92 288 278 q 408 172 408 94 q 365 310 408 229 q 268 458 321 390 q 172 610 215 526 q 128 758 128 694 q 221 923 128 860 q 435 986 314 986 l 449 986 q 460 1121 457 1056 q 574 1101 511 1121 l 547 968 q 641 904 607 946 q 675 818 675 863 q 506 579 675 715 q 547 523 522 558 q 614 399 572 488 q 656 247 656 311 m 568 811 q 479 879 568 879 q 403 858 432 879 q 374 807 374 838 q 424 694 374 764 q 444 665 433 681 q 524 726 479 682 q 568 811 568 769 z "},"%":{"ha":1200,"x_min":53,"x_max":1194,"o":"m 997 517 q 1147 462 1099 517 q 1194 335 1194 407 q 1176 203 1194 263 q 1124 92 1158 144 q 1028 8 1089 40 q 879 -24 967 -24 q 742 31 792 -24 q 692 174 692 85 q 776 422 692 326 q 997 517 861 517 m 358 1017 q 508 962 460 1017 q 556 835 556 907 q 538 703 556 763 q 485 592 519 644 q 389 508 450 540 q 240 476 328 476 q 103 531 153 476 q 53 674 53 585 q 138 922 53 826 q 358 1017 222 1017 m 475 -17 q 303 26 372 -17 q 517 513 367 244 q 746 1021 669 785 q 929 985 824 1021 l 939 981 q 797 667 890 840 q 617 321 703 493 q 488 -17 532 149 l 475 -17 m 335 939 q 269 848 293 939 q 244 655 244 757 q 278 553 244 553 q 339 658 314 553 q 364 851 364 763 q 335 939 364 939 m 974 439 q 908 348 932 439 q 883 155 883 257 q 917 53 883 53 q 978 158 953 53 q 1003 351 1003 263 q 974 439 1003 439 z "},"&":{"ha":992,"x_min":90,"x_max":1119,"o":"m 594 599 q 599 560 599 583 q 589 511 599 538 l 581 511 q 426 457 489 511 q 364 309 364 403 q 408 174 364 215 q 524 133 453 133 q 647 196 594 133 q 715 342 700 258 q 590 301 638 301 q 513 317 543 301 q 469 357 482 333 q 488 386 472 367 q 518 407 504 406 q 571 392 543 392 q 647 419 599 392 q 744 480 696 447 q 853 540 792 513 q 971 568 914 568 q 1074 533 1028 568 q 1119 431 1119 497 q 1073 318 1119 364 q 950 272 1026 272 q 803 328 874 272 q 694 80 800 188 q 436 -28 589 -28 q 258 11 343 -28 q 114 147 156 56 q 90 277 90 199 q 140 425 90 356 q 403 557 232 550 q 280 631 328 576 q 232 761 232 685 q 319 926 232 865 q 522 986 407 986 q 715 936 636 986 q 793 803 793 886 q 754 706 793 746 q 661 665 715 665 q 569 698 607 665 q 531 788 531 731 q 581 885 531 846 q 491 837 517 881 q 465 739 465 793 q 499 647 465 685 q 593 599 532 610 l 594 599 m 1010 401 q 996 434 1010 418 q 949 450 982 450 q 833 406 915 450 q 958 351 906 351 q 1010 401 1010 351 m 653 760 q 660 760 653 760 q 676 776 667 760 q 686 817 686 792 q 665 861 686 843 q 621 793 621 835 q 631 769 621 778 q 653 760 640 760 z "},"'":{"ha":328,"x_min":126,"x_max":332,"o":"m 206 1017 q 332 936 332 1017 q 290 783 332 896 q 213 593 249 671 l 126 608 l 153 1014 q 206 1017 189 1017 z "},"(":{"ha":526,"x_min":106,"x_max":578,"o":"m 374 534 q 361 470 374 534 q 338 294 349 406 q 328 68 328 183 q 344 -124 328 -47 q 400 -257 360 -200 l 346 -311 q 320 -295 336 -306 q 263 -240 304 -285 q 189 -140 221 -196 q 131 17 157 -83 q 106 256 106 118 q 150 532 106 393 q 256 756 194 671 q 382 904 317 842 q 488 993 447 967 q 535 1019 529 1019 l 578 954 q 451 775 504 888 q 374 534 399 663 z "},")":{"ha":560,"x_min":4,"x_max":476,"o":"m 208 174 q 221 239 208 174 q 244 414 233 303 q 254 640 254 525 q 238 832 254 756 q 182 965 222 908 l 236 1019 q 262 1003 246 1014 q 319 949 278 993 q 393 848 361 904 q 451 691 425 792 q 476 453 476 590 q 432 176 476 315 q 326 -48 388 38 q 200 -196 265 -133 q 94 -285 135 -258 q 47 -311 53 -311 l 4 -246 q 131 -67 78 -179 q 208 174 183 46 z "},"*":{"ha":583,"x_min":49,"x_max":613,"o":"m 443 654 q 471 651 450 651 q 535 664 492 651 q 568 623 554 654 q 582 571 582 592 q 581 544 582 550 q 482 500 540 500 q 453 504 465 500 q 398 570 431 515 q 346 682 365 625 q 307 606 307 626 q 331 525 307 567 l 338 511 q 288 465 321 486 q 226 444 254 444 q 182 489 201 460 q 163 549 163 518 q 204 630 163 579 q 296 718 246 681 q 243 729 260 729 q 214 726 226 729 q 156 688 189 721 l 144 676 q 85 706 118 681 q 49 761 51 731 q 83 823 54 793 q 139 853 113 853 q 221 825 165 853 q 318 763 276 797 q 301 849 315 826 q 247 901 290 875 l 233 910 q 250 981 233 947 q 289 1022 267 1014 q 359 1004 325 1022 q 403 961 393 986 q 406 932 406 947 q 378 760 406 839 q 444 803 433 789 q 469 876 464 832 l 472 892 q 545 901 508 901 q 600 883 582 901 q 613 817 613 853 q 592 760 613 781 q 512 723 572 740 q 396 701 451 706 q 443 654 424 663 z "},"+":{"ha":733,"x_min":85,"x_max":653,"o":"m 431 322 l 431 136 q 319 114 379 114 l 297 114 l 297 322 l 85 322 q 90 450 85 401 l 297 450 l 297 632 q 429 651 368 651 l 429 450 l 653 450 q 646 322 653 346 l 431 322 z "},",":{"ha":354,"x_min":44,"x_max":325,"o":"m 151 224 q 283 161 240 207 q 325 53 325 115 q 264 -109 325 -8 q 150 -264 203 -210 l 79 -221 q 154 -49 142 -125 l 44 26 q 74 136 44 82 q 151 224 104 190 z "},"-":{"ha":588,"x_min":71,"x_max":540,"o":"m 71 335 q 81 457 71 415 l 540 457 q 531 335 540 381 l 71 335 z "},".":{"ha":378,"x_min":56,"x_max":321,"o":"m 177 -17 q 148 -17 177 -17 q 87 16 118 -17 q 56 102 56 49 q 98 194 56 156 q 199 232 140 232 q 290 201 258 232 q 321 117 321 169 q 278 24 321 64 q 177 -17 236 -17 z "},"/":{"ha":518,"x_min":-11,"x_max":550,"o":"m 550 986 q 106 -156 343 476 q -11 -108 36 -156 q 435 1038 194 435 q 550 986 482 1026 z "},":":{"ha":474,"x_min":86,"x_max":401,"o":"m 258 367 q 228 367 258 367 q 167 399 199 367 q 136 485 136 432 q 178 577 136 539 q 280 615 221 615 q 370 584 339 615 q 401 500 401 553 q 359 407 401 447 q 258 367 317 367 m 208 -17 q 178 -17 208 -17 q 117 16 149 -17 q 86 102 86 49 q 128 194 86 156 q 230 232 171 232 q 320 201 289 232 q 351 117 351 169 q 309 24 351 64 q 208 -17 267 -17 z "},";":{"ha":474,"x_min":75,"x_max":399,"o":"m 182 224 q 313 161 271 207 q 356 53 356 115 q 294 -109 356 -8 q 181 -264 233 -210 l 110 -221 q 185 -49 172 -125 l 75 26 q 105 136 75 82 q 182 224 135 190 m 255 367 q 225 367 255 367 q 165 399 196 367 q 133 485 133 432 q 176 577 133 539 q 277 615 218 615 q 367 584 336 615 q 399 500 399 553 q 356 407 399 447 q 255 367 314 367 z "},"<":{"ha":619,"x_min":51,"x_max":582,"o":"m 260 386 l 582 260 q 561 121 582 188 l 51 340 l 51 429 l 560 674 q 582 535 582 608 l 260 386 z "},"=":{"ha":711,"x_min":114,"x_max":622,"o":"m 114 211 q 126 339 114 285 l 622 339 q 614 211 622 253 l 114 211 m 114 424 q 126 551 114 493 l 622 551 q 615 424 622 475 l 114 424 z "},">":{"ha":597,"x_min":72,"x_max":603,"o":"m 72 260 l 393 386 l 72 535 q 100 671 72 590 l 603 429 l 603 340 l 93 121 q 72 260 72 188 z "},"?":{"ha":565,"x_min":68,"x_max":569,"o":"m 367 393 q 396 369 367 379 q 410 364 400 368 q 428 358 421 360 q 440 354 436 356 q 408 281 431 311 q 215 323 288 281 q 142 446 142 365 q 194 568 142 497 q 250 638 214 593 q 390 858 390 810 q 346 883 390 883 q 238 735 289 783 q 128 791 189 742 q 68 869 68 840 q 132 942 68 897 q 283 986 196 986 q 492 919 415 986 q 569 747 569 851 q 547 656 569 706 q 505 581 524 607 q 449 510 486 554 q 367 393 367 419 m 228 -17 q 197 -17 228 -17 q 133 14 167 -17 q 99 94 99 44 q 144 181 99 144 q 251 217 189 217 q 342 186 313 217 q 371 108 371 156 q 330 22 371 61 q 228 -17 289 -17 z "},"@":{"ha":1156,"x_min":63,"x_max":1139,"o":"m 761 11 q 536 -32 646 -32 q 332 6 426 -32 q 181 108 238 44 q 63 422 63 240 q 106 638 63 535 q 225 821 149 742 q 417 947 301 900 q 667 993 532 993 q 1010 883 882 993 q 1139 603 1139 774 q 1099 424 1139 504 q 1003 297 1060 343 q 799 206 886 206 q 697 268 732 206 q 539 206 607 206 q 416 259 471 206 q 361 432 361 313 q 440 678 361 586 q 651 771 519 771 q 879 719 742 771 q 840 349 840 553 q 853 314 840 314 q 897 342 869 314 q 951 438 925 369 q 976 581 976 507 q 960 708 976 656 q 908 804 943 760 q 671 899 836 899 q 493 860 574 899 q 361 756 413 821 q 254 454 254 622 q 333 178 254 286 q 557 69 411 69 q 719 106 644 69 q 758 25 747 67 l 761 11 m 594 322 q 630 335 610 322 q 658 363 650 349 q 694 668 674 583 q 657 679 678 679 q 583 614 608 679 q 557 435 557 549 q 594 322 557 322 z "},"A":{"ha":1143,"x_min":-40,"x_max":1296,"o":"m 165 -67 q 22 -12 85 -67 q -40 129 -40 42 q 94 375 -40 258 q 266 470 160 432 q 501 515 372 508 q 629 900 551 642 q 631 920 631 906 q 617 944 631 935 l 617 964 q 865 986 747 986 l 971 981 q 999 919 985 967 q 1017 792 1013 871 q 1022 426 1021 713 q 1296 282 1175 367 q 1265 229 1289 256 q 1219 189 1240 203 l 1200 176 q 1024 306 1125 249 q 1076 111 1031 111 q 1110 118 1092 111 l 1143 42 q 933 -17 1043 -17 q 758 193 758 -17 l 758 392 q 599 413 676 408 q 425 78 517 201 q 165 -67 318 -67 m 115 138 q 132 79 115 103 q 182 56 149 56 q 282 115 231 56 q 384 268 333 174 q 457 411 435 363 q 204 307 293 392 q 115 138 115 222 m 758 560 q 746 840 758 788 q 738 842 744 842 q 729 840 731 842 q 635 514 726 782 q 758 499 689 510 l 758 560 z "},"B":{"ha":981,"x_min":-60,"x_max":1115,"o":"m 501 467 q 497 506 497 483 q 507 568 497 529 q 555 575 519 568 q 630 633 590 582 q 669 761 669 685 q 440 894 669 894 q 262 872 350 894 q 113 805 174 849 q 51 707 51 761 q 135 629 51 646 q 136 603 136 619 q 111 488 136 539 q -5 542 50 493 q -60 687 -60 590 q 22 860 -60 783 q 485 1003 178 1003 q 935 778 935 1003 q 700 518 935 592 q 846 457 783 510 q 1096 504 979 494 q 1115 430 1115 465 q 1107 363 1115 394 q 1030 367 1075 367 q 915 356 985 367 q 931 267 931 314 q 844 29 931 129 q 626 -71 758 -71 q 474 -22 526 -71 q 422 108 422 28 q 480 266 422 188 q 639 389 538 344 q 522 467 615 467 l 501 467 m 233 676 q 227 714 233 701 q 200 750 221 726 l 200 768 q 290 798 228 785 q 400 811 353 811 q 501 804 476 811 q 510 747 510 790 q 438 429 510 704 q 354 15 367 154 q 129 -8 254 -8 q 83 -4 96 -8 q 162 338 90 82 q 233 676 233 594 m 581 56 q 640 112 617 56 q 664 249 664 168 q 663 289 664 271 q 566 223 606 271 q 526 133 526 175 q 581 56 526 56 z "},"C":{"ha":789,"x_min":68,"x_max":1025,"o":"m 400 -17 q 160 88 251 -17 q 68 362 68 192 q 132 672 68 532 q 315 899 196 811 q 579 986 435 986 q 668 974 621 986 q 867 1038 768 1038 q 960 1023 917 1038 q 1025 988 1004 1008 q 994 897 1014 935 l 989 885 q 849 933 924 933 q 764 917 810 933 q 828 723 828 847 q 763 492 828 599 q 593 386 697 386 q 486 439 528 386 q 444 574 444 492 q 563 879 444 740 q 405 734 468 871 q 342 433 342 597 q 490 135 342 135 q 739 282 601 135 l 804 226 q 742 148 786 196 q 653 68 697 100 q 541 10 610 36 q 400 -17 472 -17 m 599 492 q 667 560 640 492 q 694 718 694 629 q 657 847 694 807 q 542 578 542 735 q 557 514 542 536 q 599 492 572 492 z "},"D":{"ha":1144,"x_min":33,"x_max":1140,"o":"m 33 115 q 33 143 33 115 q 81 208 33 172 q 190 243 129 243 q 310 219 250 243 q 369 481 346 321 q 393 678 393 640 q 363 750 393 717 l 363 769 q 589 811 454 811 l 661 806 q 669 746 669 790 q 609 431 667 599 q 460 146 551 264 q 609 101 549 101 q 722 158 669 101 q 806 297 775 214 q 867 612 867 468 q 790 825 867 756 q 559 894 713 894 q 278 815 406 894 q 151 631 151 736 q 172 565 151 586 q 232 532 193 544 q 194 390 231 463 q 85 456 135 401 q 36 603 36 510 q 207 889 36 775 q 619 1003 378 1003 q 1000 902 860 1003 q 1140 585 1140 801 q 1081 304 1140 442 q 910 74 1022 167 q 661 -18 799 -18 q 385 67 524 -18 q 190 -17 288 -17 q 78 20 122 -17 q 33 115 33 57 m 197 88 q 272 139 239 88 q 209 161 235 161 q 169 151 183 161 q 154 125 154 140 q 165 99 154 110 q 197 88 176 88 z "},"E":{"ha":779,"x_min":72,"x_max":997,"o":"m 808 944 q 726 929 768 944 q 785 806 785 879 q 742 675 785 733 q 638 617 700 617 q 538 656 575 617 q 501 758 501 694 q 540 878 501 822 q 456 813 489 864 q 422 686 422 763 q 444 557 422 610 q 547 564 493 564 q 645 537 600 564 q 690 461 690 510 q 650 378 690 413 q 543 344 610 344 q 386 397 476 344 q 339 270 339 335 q 376 169 339 206 q 475 133 414 133 q 721 264 601 133 l 781 214 q 708 125 753 169 q 621 53 663 81 q 515 4 579 25 q 382 -17 450 -17 q 163 48 253 -17 q 72 247 72 113 q 124 391 72 326 q 263 499 176 456 q 186 694 186 586 q 293 909 186 832 q 540 986 400 986 q 636 974 593 986 q 841 1038 732 1038 q 997 981 950 1038 q 967 900 994 932 l 957 889 q 808 944 906 944 m 675 783 q 633 869 675 844 q 593 765 593 822 q 631 707 593 707 q 663 728 650 707 q 675 783 675 750 m 549 490 q 492 479 521 490 q 563 438 522 438 q 603 463 603 438 q 549 490 603 490 z "},"F":{"ha":861,"x_min":-18,"x_max":1018,"o":"m 608 418 q 576 417 588 418 q 430 69 542 210 q 179 -71 318 -71 q 38 -17 93 -71 q -18 118 -18 36 q 78 323 -18 226 q 324 472 175 419 q 329 599 329 531 q 324 711 329 668 q 274 708 307 708 q 122 749 175 708 q 69 850 69 790 q 124 956 69 910 q 272 1003 179 1003 q 503 892 417 1003 q 600 942 525 901 q 857 1040 779 1040 q 976 965 935 1040 q 1018 796 1018 890 q 968 760 1013 785 q 806 815 903 815 q 563 776 708 815 q 590 575 590 693 q 590 551 590 567 q 589 528 589 536 q 713 536 651 536 q 821 531 775 536 q 822 503 822 525 q 811 445 822 482 q 788 392 800 408 q 608 418 708 418 m 90 133 q 108 82 90 99 q 150 65 126 65 q 244 141 199 65 q 311 364 290 217 q 149 258 208 324 q 90 133 90 193 m 182 851 q 182 842 182 851 q 202 817 182 833 q 253 800 222 800 q 306 806 283 800 q 225 892 279 892 q 192 880 203 892 q 182 851 182 868 z "},"G":{"ha":832,"x_min":68,"x_max":1179,"o":"m 957 -526 q 731 -431 850 -526 q 614 -328 676 -387 q 533 -251 551 -268 q 326 -333 440 -333 q 205 -296 253 -333 q 157 -199 157 -258 q 206 -98 157 -139 q 340 -57 256 -57 q 444 -72 390 -57 q 475 83 465 -10 q 358 56 424 56 q 149 153 229 56 q 68 414 68 251 q 106 626 68 522 q 210 810 144 731 q 369 937 275 889 q 565 985 463 985 q 653 972 614 985 q 851 1036 749 1036 q 947 1022 903 1036 q 1011 986 990 1007 q 981 896 1000 933 l 975 883 q 835 932 910 932 q 749 915 790 932 q 814 723 814 849 q 749 492 814 597 q 581 386 683 386 q 471 440 511 386 q 431 583 431 493 q 549 878 431 738 q 399 751 457 868 q 342 479 342 633 q 381 267 342 325 q 473 208 421 208 q 574 245 525 208 q 657 343 624 282 l 758 322 q 618 -144 719 26 q 700 -188 642 -157 q 790 -235 758 -219 q 869 -271 821 -250 q 1044 -310 960 -310 l 1118 -306 q 1179 -397 1160 -353 q 1092 -487 1153 -447 q 957 -526 1031 -526 m 579 490 q 653 560 625 490 q 681 717 681 629 q 643 846 681 804 q 559 724 590 794 q 528 589 528 654 q 579 490 528 490 m 311 -218 q 407 -156 368 -218 q 335 -135 369 -135 q 283 -149 301 -135 q 264 -181 264 -162 q 278 -208 264 -199 q 311 -218 293 -218 z "},"H":{"ha":1096,"x_min":22,"x_max":1232,"o":"m 638 671 q 631 554 638 619 q 788 572 732 568 q 833 924 833 799 l 832 943 q 1103 986 968 986 q 1108 946 1108 978 q 1043 575 1108 867 q 1232 550 1138 569 l 1232 533 q 1228 485 1232 499 q 1222 465 1224 472 q 1215 449 1221 458 q 1208 436 1210 440 q 1193 413 1203 422 q 1017 451 1096 440 q 975 171 975 253 q 979 138 975 147 q 1003 129 983 129 q 1061 143 1024 129 l 1092 72 q 840 -17 950 -17 q 703 121 703 -17 q 764 463 703 192 q 615 446 690 458 q 479 103 575 243 q 363 -10 431 31 q 212 -51 296 -51 q 75 3 128 -51 q 22 146 22 58 q 108 333 22 233 q 368 499 194 432 q 382 669 382 582 q 369 788 382 756 q 319 819 357 819 q 146 738 261 819 l 93 810 q 435 968 271 968 q 593 890 549 968 q 638 671 638 811 m 129 158 q 147 107 129 129 q 192 85 164 85 q 288 169 243 85 q 356 388 332 254 q 191 282 253 350 q 129 158 129 214 z "},"I":{"ha":610,"x_min":10,"x_max":625,"o":"m 422 968 q 581 890 536 968 q 625 680 625 811 q 598 424 625 549 q 520 192 571 299 q 388 17 469 85 q 210 -51 306 -51 q 63 3 115 -51 q 10 146 10 58 q 96 333 10 233 q 356 499 182 432 q 369 669 369 582 q 357 788 369 756 q 307 819 344 819 q 133 738 249 819 l 81 810 q 422 968 258 968 m 117 158 q 134 107 117 129 q 179 85 151 85 q 275 169 231 85 q 343 388 319 254 q 178 282 240 350 q 117 158 117 214 z "},"J":{"ha":603,"x_min":-110,"x_max":721,"o":"m 243 296 q 275 478 256 342 q 294 688 294 615 q 281 790 294 761 q 232 818 267 818 q 57 738 167 818 l 3 810 q 353 968 183 968 q 503 894 457 968 q 550 654 550 819 q 526 356 550 489 q 717 364 618 364 q 721 315 721 347 q 693 224 721 283 q 592 233 636 233 q 500 231 547 233 q 328 -124 440 11 q 83 -258 217 -258 q -56 -205 -3 -258 q -110 -61 -110 -151 q -24 127 -110 29 q 243 296 63 225 m -3 -50 q 15 -103 -3 -83 q 58 -122 33 -122 q 157 -37 111 -122 q 226 182 203 49 q 60 79 124 146 q -3 -50 -3 13 z "},"K":{"ha":943,"x_min":61,"x_max":1018,"o":"m 1008 886 q 919 672 1008 779 q 683 476 829 565 q 761 324 715 440 q 829 160 807 207 q 863 88 851 113 q 897 21 875 63 q 965 -53 936 -53 q 992 -47 981 -53 l 1018 -121 q 836 -176 943 -176 q 685 -133 729 -176 q 610 51 642 -89 q 581 199 608 57 q 535 393 553 340 l 525 393 q 464 422 489 393 q 453 466 453 431 q 458 517 453 501 q 482 544 463 533 q 531 556 501 556 q 583 544 561 556 q 700 665 656 603 q 736 815 736 731 q 728 899 736 856 q 841 951 783 932 q 928 972 899 969 l 957 975 q 994 938 979 965 q 1008 886 1008 911 m 229 856 q 223 890 229 878 q 199 922 217 901 l 199 942 q 288 972 226 958 q 397 985 350 985 q 497 978 460 985 q 506 935 506 963 q 424 484 506 825 q 332 15 343 143 q 104 -8 229 -8 q 61 -4 74 -8 q 149 424 68 83 q 229 856 229 764 z "},"L":{"ha":703,"x_min":-36,"x_max":856,"o":"m 537 49 q 561 35 537 49 q 630 2 585 21 q 723 -17 675 -17 q 810 -6 771 -17 q 856 -90 840 -49 q 774 -188 829 -146 q 649 -231 718 -231 q 513 -178 579 -231 q 363 -35 446 -126 l 303 33 q 140 -28 225 -28 q 10 13 56 -28 q -36 111 -36 54 q 8 208 -36 168 q 109 249 53 249 q 215 233 165 249 q 244 432 236 322 q 50 660 50 476 l 58 735 q 111 736 72 736 q 186 718 150 736 q 178 660 178 681 q 251 538 178 550 q 261 694 257 651 q 366 915 276 844 q 574 986 456 986 q 756 928 693 986 q 818 776 818 871 q 713 576 818 681 q 454 431 608 472 q 382 151 425 297 q 537 49 489 78 m 681 779 q 666 835 681 814 q 626 856 651 856 q 551 806 579 856 q 500 650 524 757 l 479 550 q 629 647 578 581 q 681 779 681 713 m 188 147 q 129 171 156 171 q 89 157 103 171 q 75 128 75 143 q 112 92 75 92 q 188 147 149 92 z "},"M":{"ha":1511,"x_min":24,"x_max":1469,"o":"m 443 968 q 606 860 567 968 q 894 986 779 986 q 1047 893 1010 986 q 1290 986 1186 986 q 1419 942 1369 986 q 1469 816 1469 899 q 1409 499 1469 733 q 1349 165 1349 264 q 1364 129 1349 129 q 1435 146 1393 129 l 1464 75 q 1208 -17 1335 -17 q 1113 19 1149 -17 q 1076 126 1076 56 q 1135 431 1076 196 q 1193 735 1193 667 q 1135 804 1193 804 q 1058 778 1103 804 q 1019 586 1051 722 q 922 18 929 210 q 664 -6 851 -6 l 640 -6 q 712 374 640 78 q 783 719 783 669 q 732 804 783 804 q 628 753 703 804 q 631 674 631 703 q 576 307 631 474 q 425 44 521 140 q 214 -51 329 -51 q 76 4 128 -51 q 24 164 24 60 q 114 410 24 268 q 374 699 204 551 q 362 794 374 768 q 325 821 350 821 q 146 735 265 821 l 90 804 q 253 917 156 867 q 443 968 351 968 m 132 169 q 149 108 132 132 q 192 85 165 85 q 312 222 258 85 q 375 568 365 358 q 203 366 274 482 q 132 169 132 250 z "},"N":{"ha":1135,"x_min":24,"x_max":1110,"o":"m 443 968 q 611 843 574 968 q 706 910 674 889 q 805 958 738 931 q 942 986 872 986 q 1061 942 1013 986 q 1110 818 1110 899 q 1050 499 1110 738 q 990 169 990 261 q 1011 129 990 129 q 1076 146 1035 129 l 1106 75 q 854 -17 978 -17 q 753 19 789 -17 q 718 125 718 56 q 776 431 718 194 q 833 735 833 668 q 782 803 833 803 q 628 733 731 803 q 631 674 631 694 q 576 307 631 474 q 425 44 521 140 q 214 -51 329 -51 q 76 4 128 -51 q 24 164 24 60 q 114 410 24 268 q 374 699 204 551 q 362 794 374 768 q 325 821 350 821 q 146 735 265 821 l 90 804 q 253 917 156 867 q 443 968 351 968 m 132 169 q 149 108 132 132 q 192 85 165 85 q 312 222 258 85 q 375 568 365 358 q 203 366 274 482 q 132 169 132 250 z "},"O":{"ha":917,"x_min":44,"x_max":1067,"o":"m 433 86 q 538 149 492 86 q 607 314 583 213 q 393 594 393 351 q 470 847 393 743 q 665 951 547 951 q 847 858 782 951 q 913 615 913 764 q 881 418 913 535 q 1011 463 946 426 l 1035 475 q 1065 381 1061 433 l 1067 361 q 971 324 1036 343 q 846 300 906 304 q 670 70 783 157 q 389 -17 557 -17 q 133 91 221 -17 q 44 388 44 199 q 138 737 44 578 q 407 985 231 896 l 454 910 q 346 681 374 803 q 318 386 318 558 q 433 86 318 86 m 600 803 q 537 747 568 803 q 506 611 506 692 q 538 482 506 531 q 626 426 571 433 q 644 673 644 543 q 600 803 644 803 z "},"P":{"ha":867,"x_min":-60,"x_max":939,"o":"m 233 674 q 227 713 233 700 q 200 749 221 725 l 200 768 q 290 798 228 785 q 400 811 353 811 q 501 804 476 811 q 510 750 510 790 q 449 474 510 710 q 524 465 485 465 q 637 542 600 465 q 674 717 674 619 q 451 894 674 894 q 167 841 282 894 q 51 710 51 788 q 135 633 51 650 q 136 607 136 622 q 111 492 136 531 q -7 547 46 500 q -60 689 -60 594 q 98 919 -60 835 q 480 1003 256 1003 q 822 934 704 1003 q 939 726 939 865 q 836 479 939 586 q 556 372 733 372 q 428 393 479 372 q 354 15 365 146 q 129 -8 254 -8 q 83 -4 96 -8 q 162 338 90 82 q 233 674 233 593 z "},"Q":{"ha":928,"x_min":40,"x_max":997,"o":"m 433 544 q 513 561 486 561 q 549 561 540 561 q 551 513 551 536 q 482 214 551 328 q 276 100 413 100 q 127 178 181 100 q 74 403 74 256 q 137 685 74 551 q 319 902 200 819 q 589 985 439 985 q 753 951 685 985 q 858 858 822 917 q 926 599 926 749 q 823 212 926 397 q 561 -96 719 26 q 676 -158 633 -136 q 785 -200 719 -179 q 908 -221 851 -221 l 951 -217 q 997 -308 981 -253 q 920 -399 971 -361 q 804 -437 869 -437 q 556 -299 706 -437 q 432 -179 497 -244 q 223 -242 311 -242 q 88 -203 135 -242 q 40 -106 40 -164 q 88 -7 40 -49 q 222 35 136 35 q 421 -19 308 35 q 588 233 522 75 q 653 608 653 392 q 543 876 653 876 q 433 803 482 876 q 359 616 385 729 q 333 369 333 503 q 360 236 333 236 q 415 306 392 236 q 438 478 438 376 q 433 544 438 482 m 151 -87 q 205 -126 151 -126 q 326 -90 258 -126 q 213 -43 261 -43 q 168 -56 185 -43 q 151 -87 151 -69 z "},"R":{"ha":935,"x_min":-62,"x_max":1018,"o":"m 449 478 q 452 486 449 478 q 474 506 454 494 q 522 517 493 517 q 574 506 551 517 q 674 724 674 583 q 621 853 674 813 q 457 894 568 894 q 167 841 285 894 q 49 710 49 788 q 76 658 49 678 q 132 633 103 639 q 133 603 133 621 q 108 492 133 528 q -10 549 43 500 q -62 689 -62 597 q 98 918 -62 833 q 507 1003 258 1003 q 821 933 706 1003 q 936 731 936 864 q 863 561 936 636 q 688 438 790 486 q 826 168 738 389 q 965 -53 915 -53 q 992 -47 975 -53 l 1018 -121 q 834 -176 936 -176 q 687 -132 732 -176 q 610 51 642 -87 q 592 139 604 75 q 540 354 560 290 l 517 354 q 456 383 481 354 q 444 427 444 392 q 449 478 444 463 m 210 676 q 203 715 210 703 q 176 751 197 728 l 176 768 q 267 798 204 785 q 376 811 329 811 q 478 804 453 811 q 486 747 486 790 q 415 428 486 704 q 331 15 343 153 q 106 -8 231 -8 q 60 -4 72 -8 q 138 339 67 82 q 210 676 210 596 z "},"S":{"ha":876,"x_min":-51,"x_max":942,"o":"m 419 -28 q 272 15 331 -28 q 213 131 213 57 q 269 254 213 206 q 410 328 325 303 q 306 493 381 379 q 215 483 254 483 q 19 546 90 483 q -51 714 -51 608 q -36 815 -51 769 l -31 832 q 85 815 44 831 q 61 709 61 764 q 105 617 61 654 q 210 581 149 581 q 251 585 231 581 q 194 761 194 689 q 287 926 194 865 q 497 986 379 986 q 678 937 614 986 q 742 815 742 888 q 689 680 742 742 q 571 579 636 618 q 694 347 656 467 q 942 299 793 343 q 889 167 938 233 q 714 236 818 219 q 624 50 713 128 q 419 -28 535 -28 m 513 668 q 584 727 556 688 q 613 804 613 767 q 588 860 613 842 q 524 879 563 879 q 460 860 485 879 q 435 811 435 842 q 513 668 435 765 m 394 89 q 407 89 394 89 q 438 119 421 89 q 456 181 456 150 q 447 244 456 211 q 335 154 335 225 q 351 108 335 128 q 394 89 367 89 z "},"T":{"ha":896,"x_min":-46,"x_max":996,"o":"m 821 253 q 821 198 821 253 q 733 58 821 143 q 503 -28 646 -28 q 279 58 360 -28 q 193 278 193 150 q 194 317 193 293 q 63 132 124 257 q -46 224 -17 168 q 229 453 63 389 q 478 799 299 622 q 297 835 389 835 q 125 778 204 835 q 72 814 79 800 q 115 971 72 901 q 243 1040 158 1040 q 514 944 329 1040 q 603 904 582 910 q 733 975 663 947 q 857 1003 803 1003 q 953 973 911 1003 q 996 881 996 943 q 951 772 996 818 q 825 725 906 725 q 688 750 783 725 q 521 494 588 642 q 727 428 633 492 q 821 253 821 364 m 521 397 q 482 394 507 397 q 463 258 463 325 q 494 147 463 192 q 572 101 525 101 q 650 150 619 101 q 681 260 681 199 q 633 359 681 321 q 521 397 585 397 m 897 867 q 864 897 897 897 q 758 833 814 897 q 822 817 782 817 q 897 867 897 817 z "},"U":{"ha":1054,"x_min":4,"x_max":1128,"o":"m 576 807 q 576 763 576 807 q 503 492 576 718 q 429 210 429 267 q 477 153 429 153 q 603 225 525 153 q 628 399 608 303 q 776 847 689 708 q 981 986 864 986 q 1091 948 1054 986 q 1128 847 1128 910 q 1051 597 1128 738 q 868 331 974 456 q 865 231 865 275 q 872 150 865 188 q 904 113 879 113 q 958 124 925 113 l 983 51 q 778 -17 876 -17 q 610 101 640 -17 q 317 -18 451 -18 q 199 26 242 -18 q 157 142 157 71 q 226 442 157 213 q 4 697 4 546 q 63 851 4 782 q 201 953 122 919 q 368 986 279 986 q 517 941 457 986 q 576 807 576 896 m 304 790 q 253 861 304 861 q 161 817 206 861 q 117 714 117 772 q 257 550 117 604 q 304 790 304 700 m 1008 869 q 946 756 979 869 q 889 492 913 642 q 981 683 940 572 q 1022 832 1022 794 q 1008 869 1022 869 z "},"V":{"ha":956,"x_min":-15,"x_max":1018,"o":"m 551 543 q 636 583 588 554 q 679 474 678 535 q 536 421 626 447 q 519 231 519 294 q 542 167 519 167 q 629 229 576 167 q 729 401 682 292 q 788 622 776 511 q 669 876 788 758 q 749 985 700 936 q 832 1053 799 1033 l 865 1071 q 973 999 928 1071 q 1018 826 1018 928 q 960 572 1018 724 q 815 292 901 421 q 621 73 729 163 q 417 -17 513 -17 q 284 39 321 -17 q 247 193 247 94 q 263 410 247 242 q 60 497 135 417 q -15 678 -15 576 q 103 897 -15 808 q 354 986 221 986 q 510 926 449 986 q 571 739 571 865 q 551 543 571 688 m 294 732 q 229 857 294 857 q 141 803 185 857 q 97 678 97 749 q 148 565 97 607 q 275 522 199 522 q 294 732 294 675 z "},"W":{"ha":1396,"x_min":-14,"x_max":1458,"o":"m 1228 663 q 1110 917 1228 799 q 1190 1025 1140 976 q 1272 1092 1239 1074 l 1306 1111 q 1413 1040 1368 1111 q 1458 879 1458 968 q 1367 510 1458 722 q 1135 141 1275 299 q 876 -17 996 -17 q 706 124 726 -17 q 581 21 647 58 q 444 -17 514 -17 q 327 31 375 -17 q 279 185 279 79 q 286 411 279 258 q 71 499 156 418 q -14 678 -14 579 q 104 897 -14 808 q 356 986 222 986 q 510 926 450 986 q 571 739 571 865 q 561 507 571 660 q 551 261 551 354 q 578 168 551 168 q 637 202 599 168 q 704 279 675 236 q 717 404 707 319 q 738 718 738 586 q 707 928 738 850 q 1000 983 871 982 q 1015 810 1015 929 q 994 503 1015 692 q 974 240 974 314 q 994 165 974 165 q 1051 210 1015 165 q 1122 324 1086 256 q 1189 485 1158 393 q 1228 663 1219 578 m 292 522 q 299 670 299 592 q 286 801 299 749 q 231 854 274 854 q 144 801 189 854 q 99 677 99 747 q 156 565 99 607 q 292 522 213 522 z "},"X":{"ha":935,"x_min":-8,"x_max":956,"o":"m 849 104 q 893 114 861 104 l 922 51 q 818 2 879 21 q 706 -17 757 -17 q 521 83 578 -17 q 429 318 493 132 q 213 7 321 181 q 171 -17 196 -17 q 106 3 146 -17 q 44 58 67 22 q 158 213 104 150 q 233 303 211 276 q 379 463 276 351 q 325 614 361 517 q 175 578 253 578 q 44 630 97 578 q -8 763 -8 682 q 76 934 -8 865 q 267 1003 160 1003 q 389 973 331 1003 q 478 887 447 943 q 576 649 510 831 q 788 963 689 794 q 831 986 803 986 q 956 910 901 986 q 856 771 911 835 q 781 686 800 707 q 699 599 763 665 q 622 517 636 532 q 757 189 711 274 q 849 104 803 104 m 114 758 q 114 741 114 758 q 140 699 114 725 q 208 672 165 672 q 289 701 251 672 l 274 736 q 227 811 249 789 q 177 833 206 833 q 131 812 149 833 q 114 758 114 790 z "},"Y":{"ha":1088,"x_min":11,"x_max":1147,"o":"m 1147 842 q 1075 608 1147 747 q 894 364 1003 468 q 817 74 858 189 q 1047 56 933 74 q 1006 -78 1047 -7 q 768 -42 888 -47 q 400 -311 636 -311 q 262 -276 313 -311 q 211 -179 211 -242 q 299 -35 211 -100 q 568 69 386 31 l 590 147 q 332 67 447 67 q 224 101 264 67 q 185 197 185 136 q 238 442 185 258 q 11 700 11 546 q 69 851 11 783 q 210 952 128 918 q 378 986 292 986 q 526 941 464 986 q 589 814 589 896 q 523 526 589 732 q 457 285 457 319 q 502 240 457 240 q 624 292 547 240 l 638 365 q 696 644 676 582 q 733 756 715 706 q 767 834 750 806 q 809 896 785 863 q 860 946 833 929 q 997 986 924 986 q 1108 947 1069 986 q 1147 842 1147 907 m 267 550 q 317 785 317 708 q 265 861 317 861 q 169 819 214 861 q 124 713 124 778 q 267 550 124 607 m 354 -154 q 392 -182 354 -182 q 469 -142 429 -182 q 540 -40 510 -103 q 406 -90 457 -56 q 354 -154 354 -124 m 1025 869 q 985 803 1003 869 q 932 550 957 696 q 1006 702 972 611 q 1039 831 1039 793 q 1025 869 1039 869 z "},"Z":{"ha":799,"x_min":-49,"x_max":838,"o":"m 558 965 q 672 954 622 954 q 765 969 722 954 q 785 910 785 940 q 676 582 785 793 q 428 185 567 371 q 547 132 476 157 q 668 107 618 107 q 739 136 718 107 q 838 83 800 126 q 749 -65 808 -18 q 625 -111 690 -111 q 538 -92 586 -111 q 462 -56 489 -72 q 375 4 435 -39 q 306 54 315 47 q 118 -28 194 -28 q -3 9 42 -28 q -49 107 -49 46 q 12 216 -49 168 q 163 264 72 264 q 258 250 211 264 q 425 505 353 367 q 515 749 497 643 q 463 761 465 760 q 158 596 311 596 q 12 652 71 596 q -47 799 -47 708 q 28 955 -47 890 q 228 1019 104 1019 q 457 985 286 1019 q 494 1178 486 1061 q 547 1182 519 1182 q 611 1165 574 1182 q 558 965 596 1061 m 165 692 q 361 793 274 692 q 117 808 169 853 q 93 758 93 788 q 112 710 93 728 q 165 692 131 692 m 61 119 q 103 92 61 92 q 189 144 146 92 q 131 165 163 165 q 61 119 61 165 z "},"[":{"ha":547,"x_min":88,"x_max":579,"o":"m 308 -185 q 400 -226 308 -197 l 429 -236 l 418 -310 q 382 -311 399 -311 q 114 -292 224 -311 q 88 -235 90 -260 q 225 958 171 583 q 247 1000 228 981 q 286 1019 265 1019 q 579 990 404 1019 l 574 908 q 433 879 439 906 q 400 666 426 846 q 364 399 374 486 q 343 217 354 313 q 325 65 332 121 q 308 -185 308 -89 z "},"\\":{"ha":525,"x_min":13,"x_max":574,"o":"m 13 986 q 128 1038 71 1024 q 574 -108 368 435 q 457 -156 526 -156 q 13 986 219 476 z "},"]":{"ha":592,"x_min":21,"x_max":513,"o":"m 292 893 q 201 935 292 906 l 171 944 l 182 1018 q 218 1019 201 1019 q 486 1000 376 1019 q 513 943 510 968 q 375 -250 429 125 q 353 -292 372 -272 q 314 -311 335 -311 q 21 -282 196 -311 l 26 -200 q 167 -171 161 -197 q 200 42 174 -137 q 236 309 226 222 q 257 492 246 396 q 275 643 268 588 q 292 893 292 797 z "},"^":{"ha":654,"x_min":25,"x_max":629,"o":"m 629 404 q 549 394 596 394 q 447 400 503 394 l 329 726 l 207 400 q 104 394 151 394 l 25 400 q 264 936 243 892 l 396 936 q 469 764 426 865 q 629 404 561 551 z "},"_":{"ha":853,"x_min":68,"x_max":786,"o":"m 68 0 q 72 113 68 82 l 786 113 q 782 0 786 22 l 68 0 z "},"`":{"ha":883,"x_min":214,"x_max":679,"o":"m 319 967 q 679 760 383 967 l 643 693 q 214 819 440 765 q 319 967 264 967 z "},"a":{"ha":738,"x_min":40,"x_max":758,"o":"m 719 563 q 669 348 690 472 q 649 174 649 224 q 664 125 649 125 l 733 144 l 758 75 q 645 12 714 40 q 524 -17 576 -17 q 410 61 433 -17 q 216 -17 300 -17 q 86 44 132 -17 q 40 219 40 106 q 121 496 40 376 q 333 615 201 615 q 481 575 406 615 q 499 611 492 600 q 719 563 599 611 m 301 237 q 301 202 301 237 q 311 149 301 167 q 347 131 321 131 q 399 151 374 131 q 451 489 404 313 q 403 501 431 501 q 355 471 376 501 q 322 394 333 440 q 301 237 301 307 z "},"b":{"ha":722,"x_min":35,"x_max":706,"o":"m 454 961 q 386 567 454 860 q 535 615 467 615 q 654 558 603 615 q 706 351 706 501 q 623 92 706 200 q 419 -17 540 -17 q 276 22 347 -17 q 42 -11 138 -11 q 35 36 35 -7 q 116 471 35 138 q 197 924 197 804 q 194 982 197 954 q 446 1019 329 1019 q 454 961 454 1006 m 411 476 q 361 461 392 476 q 292 115 301 204 q 338 103 317 103 q 415 204 385 103 q 444 391 444 306 q 411 476 444 476 z "},"c":{"ha":589,"x_min":28,"x_max":611,"o":"m 392 522 q 318 446 349 522 q 288 292 288 369 q 386 121 288 121 q 528 181 449 121 l 572 119 q 433 19 514 56 q 271 -17 351 -17 q 95 49 163 -17 q 28 249 28 115 q 127 513 28 410 q 388 615 226 615 q 551 573 492 615 q 611 466 611 531 q 572 354 611 401 q 473 372 526 354 q 388 415 419 389 l 408 519 q 392 522 400 522 z "},"d":{"ha":753,"x_min":40,"x_max":779,"o":"m 524 -17 q 413 50 438 -17 q 224 -17 307 -17 q 91 40 142 -17 q 40 222 40 96 q 124 501 40 388 q 342 615 208 615 q 472 585 407 615 q 524 922 524 819 q 519 983 524 953 q 768 1019 649 1019 q 779 934 779 1001 q 716 572 779 867 q 653 178 653 278 q 671 125 653 125 l 731 144 l 756 74 q 524 -17 633 -17 m 342 124 q 397 140 367 124 l 397 142 q 451 496 403 254 q 411 504 424 504 q 360 475 382 504 q 325 400 338 446 q 301 215 301 306 q 342 124 301 124 z "},"e":{"ha":606,"x_min":28,"x_max":628,"o":"m 28 251 q 133 519 28 424 q 392 615 238 615 q 563 569 499 615 q 628 444 628 522 q 593 343 628 388 q 508 275 558 299 q 325 218 403 228 l 290 214 q 382 122 306 122 q 456 137 415 122 q 519 167 496 151 l 543 181 l 588 121 q 572 106 588 121 q 533 73 564 97 q 467 31 501 49 q 381 -2 433 13 q 275 -17 328 -17 q 92 52 157 -17 q 28 251 28 121 m 285 306 q 365 372 325 311 q 406 473 406 432 q 382 514 406 514 q 318 460 347 514 q 285 306 289 406 z "},"f":{"ha":453,"x_min":13,"x_max":574,"o":"m 497 492 l 375 501 q 320 53 363 267 q 236 -215 278 -161 q 101 -199 167 -214 q 13 -171 36 -185 q 88 137 65 7 q 132 496 110 267 l 40 486 q 35 540 35 513 q 42 599 35 567 l 142 599 q 200 878 163 806 q 317 1000 249 974 q 422 1018 358 1018 q 530 981 486 1018 q 574 883 574 944 q 517 740 574 821 q 379 599 460 660 l 519 599 q 497 492 519 536 m 457 914 q 383 710 399 914 q 462 795 432 749 q 492 878 492 842 q 457 914 492 914 z "},"g":{"ha":699,"x_min":40,"x_max":693,"o":"m 390 60 q 217 7 293 7 q 91 67 142 7 q 40 247 40 128 q 127 511 40 407 q 335 615 214 615 q 467 583 393 615 q 663 610 553 610 l 686 610 q 693 548 693 596 q 676 360 693 500 q 638 125 658 219 q 499 -194 593 -76 q 264 -311 406 -311 q 151 -281 194 -311 q 107 -203 107 -250 q 130 -124 107 -156 q 196 -72 153 -93 q 376 -12 269 -36 l 390 60 m 399 503 q 324 419 350 503 q 299 239 299 336 q 344 142 299 142 q 401 161 364 142 q 438 494 413 274 q 399 503 417 503 m 240 -208 q 301 -182 267 -208 q 357 -96 335 -156 q 206 -176 206 -122 q 240 -208 208 -208 z "},"h":{"ha":756,"x_min":35,"x_max":757,"o":"m 457 946 q 386 546 457 849 q 574 614 506 614 q 676 577 643 614 q 710 485 710 540 q 679 313 710 431 q 649 160 649 196 q 660 124 649 124 l 732 143 l 757 74 q 638 13 714 42 q 504 -17 563 -17 q 392 111 392 -17 q 421 283 392 169 q 450 427 450 397 q 429 457 450 457 q 358 429 400 457 q 296 60 296 164 l 297 26 q 43 -11 156 -11 q 35 33 35 -7 q 117 460 35 119 q 200 918 200 800 q 194 982 200 954 q 447 1019 329 1019 q 457 946 457 996 z "},"i":{"ha":417,"x_min":46,"x_max":418,"o":"m 374 522 q 374 491 374 522 q 339 331 374 460 q 304 164 304 203 q 319 125 304 125 q 375 139 335 125 l 388 144 l 413 75 q 295 11 365 39 q 168 -17 225 -17 q 78 15 111 -17 q 46 108 46 47 q 80 292 46 168 q 114 450 114 417 q 78 547 114 501 l 67 563 l 71 586 q 351 608 143 608 q 374 522 374 583 m 270 717 q 239 717 270 717 q 172 750 207 717 q 136 835 136 783 q 180 923 136 888 q 286 958 224 958 q 383 929 349 958 q 418 847 418 900 q 376 756 418 794 q 270 717 333 717 z "},"j":{"ha":414,"x_min":-197,"x_max":440,"o":"m 18 -311 q -197 -214 -103 -311 l -160 -154 q -67 -181 -115 -181 q 17 -116 -18 -181 q 88 152 51 -51 q 124 453 124 356 q 110 501 124 474 q 82 544 96 528 l 68 561 l 71 583 q 363 608 171 608 q 383 516 383 585 q 358 288 383 447 q 303 10 333 128 q 18 -311 218 -311 m 292 717 q 261 717 292 717 q 194 750 229 717 q 158 835 158 783 q 202 923 158 888 q 308 958 246 958 q 406 929 371 958 q 440 847 440 900 q 398 756 440 794 q 292 717 356 717 z "},"k":{"ha":747,"x_min":35,"x_max":769,"o":"m 199 918 q 192 982 199 954 q 442 1019 329 1019 q 456 946 456 1003 q 393 557 456 844 q 590 615 504 615 q 720 581 675 615 q 765 483 765 546 q 586 311 765 363 q 672 119 631 119 l 739 138 l 769 69 q 663 13 735 42 q 524 -17 590 -17 q 422 33 457 -17 q 378 164 388 83 q 368 344 368 244 q 474 392 435 361 q 513 455 513 424 q 479 486 513 486 q 417 471 453 486 q 365 442 382 456 q 290 18 290 125 q 36 -6 183 -6 q 35 21 35 6 q 117 444 35 93 q 199 918 199 794 z "},"l":{"ha":413,"x_min":35,"x_max":432,"o":"m 417 78 q 300 11 372 39 q 169 -17 228 -17 q 72 17 110 -17 q 35 115 35 51 q 105 472 35 179 q 175 906 175 764 q 167 983 175 936 q 419 1019 297 1019 q 432 947 432 997 q 362 535 432 853 q 292 169 292 218 q 308 121 292 121 q 368 139 322 121 l 383 146 l 417 78 z "},"m":{"ha":1097,"x_min":49,"x_max":1099,"o":"m 83 -8 l 49 -8 q 87 267 49 90 q 125 464 125 444 q 113 507 125 483 q 88 543 100 531 l 75 556 l 78 576 q 363 603 158 603 q 383 535 378 571 q 588 614 504 614 q 663 590 632 614 q 707 528 694 567 q 918 614 822 614 q 1016 576 981 614 q 1051 484 1051 538 q 1021 311 1051 431 q 990 158 990 192 q 1001 124 990 124 l 1074 142 l 1099 72 q 984 11 1057 39 q 853 -17 911 -17 q 733 104 733 -17 q 763 279 733 156 q 792 430 792 403 q 771 457 792 457 q 708 433 742 457 q 686 333 704 413 q 647 18 647 156 q 399 -6 583 -6 q 394 67 394 10 q 425 268 394 124 q 456 435 456 413 q 436 457 456 457 q 375 435 413 457 q 349 314 371 411 q 301 17 301 110 q 83 -8 236 -8 z "},"n":{"ha":769,"x_min":49,"x_max":771,"o":"m 72 -8 l 49 -8 q 88 253 49 78 q 128 454 128 428 q 115 506 128 481 q 90 543 103 531 l 78 556 l 81 576 q 367 603 163 603 q 386 536 381 571 q 599 614 513 614 q 690 576 657 614 q 724 484 724 538 q 693 313 724 431 q 663 159 663 194 q 672 124 663 124 l 746 143 l 771 74 q 655 12 726 40 q 524 -17 583 -17 q 406 106 406 -17 q 435 278 406 158 q 464 427 464 397 q 444 457 464 457 q 378 429 419 457 q 350 308 372 404 q 306 18 306 107 q 72 -8 238 -8 z "},"o":{"ha":619,"x_min":28,"x_max":760,"o":"m 261 -17 q 90 52 153 -17 q 28 246 28 121 q 118 505 28 399 q 356 611 208 611 l 418 606 q 481 615 451 615 q 580 568 550 615 q 614 433 610 521 q 725 451 672 436 l 744 457 q 758 399 754 447 l 760 383 q 607 333 697 351 q 486 85 576 186 q 261 -17 396 -17 m 289 251 q 354 122 289 122 q 448 181 400 122 q 514 322 496 239 q 372 458 372 322 q 376 507 372 482 q 356 503 363 507 q 310 402 332 478 q 289 251 289 326 z "},"p":{"ha":711,"x_min":-14,"x_max":694,"o":"m -3 -311 q -14 -235 -14 -293 q 40 82 -14 -176 q 93 406 93 340 q 81 505 93 471 q 56 549 68 539 l 43 558 l 46 579 q 328 606 129 606 q 346 551 339 585 q 514 615 435 615 q 644 555 593 615 q 694 350 694 494 q 619 94 694 206 q 397 -17 543 -17 q 272 8 333 -17 q 240 -268 240 -149 q -3 -311 140 -304 m 333 100 q 397 156 371 100 q 444 392 444 253 q 404 474 444 474 q 349 458 383 474 q 293 107 340 342 q 333 100 317 100 z "},"q":{"ha":719,"x_min":40,"x_max":703,"o":"m 321 -311 l 306 -311 q 304 -269 304 -299 q 356 28 304 -192 q 208 -17 281 -17 q 88 40 135 -17 q 40 218 40 96 q 127 501 40 388 q 335 615 214 615 q 467 583 410 615 q 692 613 585 613 q 703 554 703 597 q 631 154 703 467 q 560 -268 560 -158 q 321 -311 467 -311 m 408 501 q 329 401 357 501 q 301 197 301 301 q 308 142 301 158 q 337 125 315 125 q 382 136 358 125 q 444 494 442 388 q 408 501 424 501 z "},"r":{"ha":544,"x_min":53,"x_max":615,"o":"m 68 -8 l 57 -8 q 53 52 53 11 q 87 265 53 93 q 121 459 121 436 q 108 506 121 482 q 83 543 96 531 l 71 556 l 74 576 q 350 603 157 603 q 372 521 368 568 q 522 615 457 615 q 615 472 607 615 q 608 463 613 469 q 589 442 604 457 q 557 414 574 426 q 457 376 510 382 q 438 407 456 376 q 409 438 421 438 q 365 413 397 438 q 349 328 361 388 q 331 229 338 268 q 310 57 310 126 l 311 15 q 68 -8 250 -8 z "},"s":{"ha":535,"x_min":0,"x_max":517,"o":"m 511 188 q 431 42 511 101 q 244 -17 351 -17 q 69 19 138 -17 q 0 88 0 56 q 42 172 0 121 q 129 231 85 222 q 244 76 193 196 q 285 103 285 76 q 274 139 285 122 q 257 165 263 156 q 238 192 251 175 q 217 218 224 210 q 154 294 182 260 q 88 441 88 378 q 128 544 88 504 q 332 615 197 615 q 467 583 417 615 q 517 485 517 550 q 440 338 517 421 q 511 188 511 256 m 418 442 q 426 455 418 442 q 435 489 435 468 q 417 521 435 510 q 374 532 399 532 q 335 520 349 532 q 322 489 322 508 q 382 403 322 469 q 418 442 401 417 z "},"t":{"ha":469,"x_min":50,"x_max":540,"o":"m 517 492 l 397 501 q 337 213 342 253 q 332 147 332 172 q 349 121 332 121 q 422 146 368 121 l 456 79 q 343 11 411 39 q 212 -17 275 -17 q 111 16 149 -17 q 74 108 74 49 q 108 300 74 168 q 154 496 143 432 q 56 486 121 493 q 50 541 50 515 q 57 599 50 567 l 168 599 q 169 719 169 617 l 167 776 q 424 821 301 821 q 433 744 433 799 q 415 599 433 689 l 540 599 q 517 492 540 542 z "},"u":{"ha":753,"x_min":49,"x_max":760,"o":"m 49 113 q 85 304 49 171 q 122 468 122 438 q 72 557 122 499 l 75 578 q 371 606 201 606 q 382 531 382 582 q 344 336 382 479 q 306 167 306 193 q 340 131 306 131 q 400 149 364 131 q 425 265 404 171 q 474 579 474 475 q 692 607 538 607 l 729 607 q 692 363 729 544 q 655 153 656 181 q 667 125 654 125 l 735 143 l 760 74 q 643 13 719 42 q 508 -17 567 -17 q 401 53 422 -17 q 181 -17 286 -17 q 49 113 49 -17 z "},"v":{"ha":593,"x_min":33,"x_max":621,"o":"m 68 158 l 86 449 q 76 508 86 486 q 33 568 65 529 l 39 589 q 217 614 146 614 q 316 581 288 614 q 344 489 344 549 q 323 314 344 429 q 301 162 301 199 q 322 125 301 125 q 409 188 356 125 q 479 313 463 251 l 376 411 q 401 520 382 469 q 436 592 421 571 l 453 614 q 621 475 621 614 q 566 272 621 385 q 413 71 511 158 q 208 -17 314 -17 q 68 158 68 -17 z "},"w":{"ha":917,"x_min":33,"x_max":944,"o":"m 68 151 l 82 457 q 74 508 82 486 q 33 567 65 529 l 38 589 q 213 615 143 615 q 312 582 282 615 q 342 490 342 549 q 321 317 342 431 q 300 163 300 203 q 322 124 300 124 q 399 160 353 124 q 411 296 400 183 q 422 463 422 408 q 414 560 422 518 q 525 590 446 576 q 658 604 604 604 q 671 526 671 579 q 647 340 671 472 q 624 166 624 207 q 646 125 624 125 q 732 191 679 125 q 801 311 785 257 l 700 411 q 725 519 706 468 q 761 592 744 569 l 776 614 q 944 478 944 614 q 909 326 944 413 q 819 165 874 240 q 690 36 765 89 q 544 -17 615 -17 q 410 68 446 -17 q 201 -15 308 -15 q 103 22 138 -15 q 68 151 68 60 z "},"x":{"ha":589,"x_min":-28,"x_max":617,"o":"m 525 125 q 586 146 542 125 l 617 78 q 512 14 583 44 q 386 -17 440 -17 q 301 6 332 -17 q 250 86 271 29 q 218 175 242 106 q 117 -17 165 113 q 42 -2 86 -17 q -28 31 -3 13 q 185 275 57 171 q 110 472 138 418 q 43 556 99 500 l 47 576 q 307 608 146 603 q 339 580 321 604 q 367 524 357 556 l 394 426 q 429 483 419 464 l 443 511 q 460 551 457 539 q 478 613 468 588 q 593 576 536 607 l 611 567 q 424 329 543 438 q 525 125 483 125 z "},"y":{"ha":701,"x_min":43,"x_max":704,"o":"m 693 606 l 704 606 q 681 450 697 569 q 600 39 643 178 q 257 -311 493 -311 q 142 -281 186 -311 q 99 -203 99 -251 q 122 -124 99 -156 q 188 -72 144 -93 q 368 -12 261 -36 q 382 56 379 40 q 176 -3 274 -3 q 43 128 43 -3 q 74 308 43 174 q 104 493 104 442 q 97 569 104 544 q 351 604 261 604 q 363 538 363 588 q 331 347 363 489 q 300 181 300 206 q 342 138 300 138 q 396 150 365 138 q 427 366 407 221 q 456 565 447 511 q 565 594 492 582 q 693 606 638 606 m 197 -176 q 239 -208 197 -208 q 294 -180 260 -208 q 349 -96 328 -151 q 197 -176 197 -122 z "},"z":{"ha":590,"x_min":0,"x_max":603,"o":"m 208 611 l 493 604 q 583 608 542 604 l 596 561 q 308 208 394 328 q 483 172 446 172 q 543 229 519 171 l 603 208 q 443 -36 578 -36 q 315 10 396 -36 q 210 64 233 56 q 110 -7 143 -7 q 39 31 78 -7 q 0 103 0 69 q 49 185 0 136 q 154 233 99 233 q 196 231 168 233 q 340 432 278 307 q 85 382 171 432 q 68 497 68 449 q 71 582 68 546 q 208 611 93 611 z "},"{":{"ha":650,"x_min":108,"x_max":676,"o":"m 308 542 l 304 828 q 357 969 304 918 q 498 1021 410 1021 q 676 983 586 1021 l 665 914 q 654 914 660 914 q 556 894 572 914 q 528 794 539 875 q 508 601 517 714 q 493 451 499 489 q 397 349 483 379 q 448 310 429 338 q 467 240 467 282 q 442 40 467 197 q 417 -144 417 -117 q 421 -182 417 -172 q 454 -215 428 -201 q 504 -231 481 -228 l 528 -235 l 519 -304 q 426 -311 479 -311 q 181 -156 181 -311 q 228 59 181 -106 q 288 286 276 224 q 150 314 274 303 l 108 317 q 122 435 110 382 q 288 415 242 415 l 303 417 q 308 542 308 468 z "},"|":{"ha":372,"x_min":151,"x_max":283,"o":"m 283 1106 l 283 -199 q 151 -207 222 -207 l 151 1099 q 283 1106 239 1106 z "},"}":{"ha":654,"x_min":39,"x_max":607,"o":"m 407 168 l 411 -118 q 358 -260 411 -208 q 217 -311 306 -311 q 39 -274 128 -311 l 50 -204 q 160 -185 142 -204 q 188 -86 178 -167 q 208 108 199 -6 q 222 258 217 221 q 318 361 232 331 q 267 400 286 372 q 249 470 249 428 q 274 670 249 513 q 299 854 299 828 q 293 896 299 881 q 261 924 288 911 q 211 942 235 938 l 188 944 l 196 1014 q 289 1021 236 1021 q 535 865 535 1021 q 487 651 535 815 q 428 424 439 486 q 565 397 442 407 l 607 393 q 593 275 606 328 q 428 294 474 294 l 413 293 q 407 168 407 242 z "},"~":{"ha":750,"x_min":61,"x_max":713,"o":"m 533 311 q 383 330 500 311 q 231 349 265 349 q 176 338 197 349 q 132 293 154 326 l 61 311 q 251 522 83 522 q 401 503 286 522 q 565 485 515 485 q 646 531 614 485 l 713 514 q 533 311 690 311 z "},"ย":{"ha":278,"x_min":0,"x_max":0,"o":""},"ยก":{"ha":432,"x_min":18,"x_max":429,"o":"m 306 628 q 335 628 306 628 q 397 597 365 628 q 429 514 429 567 q 386 422 429 461 q 283 382 343 382 q 190 415 222 382 q 157 499 157 447 q 201 589 157 550 q 306 628 246 628 m 18 -321 q 84 13 18 -219 q 179 296 150 246 q 261 311 222 311 q 328 306 300 311 q 292 -226 292 -35 l 300 -347 q 36 -394 147 -394 q 18 -321 18 -372 z "},"ยข":{"ha":576,"x_min":28,"x_max":611,"o":"m 392 522 q 318 446 349 522 q 288 292 288 369 q 386 121 288 121 q 528 181 449 121 l 572 119 q 300 -15 461 -1 q 293 -161 293 -71 q 176 -142 239 -161 l 201 -8 q 74 74 121 10 q 28 249 28 139 q 106 490 28 392 q 318 610 185 588 q 331 781 325 678 q 443 761 381 781 l 414 614 q 559 567 507 608 q 611 463 611 525 q 572 354 611 401 q 473 372 526 354 q 388 415 419 389 l 408 519 q 392 522 400 522 z "},"ยฃ":{"ha":765,"x_min":-15,"x_max":804,"o":"m 535 1018 q 727 970 650 1018 q 804 847 804 922 q 758 733 804 792 q 567 786 626 733 l 582 907 q 549 919 569 919 q 514 906 528 919 q 482 839 493 881 q 458 721 471 797 q 431 571 446 644 l 650 571 q 628 494 647 539 l 621 481 q 410 489 519 489 q 313 219 365 326 q 575 171 488 171 q 635 200 611 171 q 672 257 656 225 l 747 228 q 674 36 719 97 q 560 -25 628 -25 q 469 -7 515 -25 q 358 45 422 11 q 254 96 293 79 q 167 16 215 47 q 98 -15 118 -15 q 31 47 78 -15 q -15 138 -15 108 q 36 188 -15 151 q 135 235 88 225 q 176 476 157 303 q 108 465 150 474 q 104 512 104 485 q 108 571 104 539 l 188 571 l 203 701 q 315 961 225 897 q 412 1006 361 994 q 535 1018 463 1018 z "},"ยค":{"ha":967,"x_min":61,"x_max":946,"o":"m 211 308 q 171 480 171 383 q 203 644 171 576 q 61 789 115 719 q 141 869 114 847 q 198 892 168 892 q 257 856 228 893 l 318 772 q 500 815 393 815 q 685 771 607 815 q 718 817 697 788 q 747 856 739 846 q 810 893 776 893 q 864 869 836 890 q 943 790 892 849 q 800 644 894 728 q 833 482 833 574 q 799 319 833 390 q 946 171 893 236 q 867 94 894 114 q 814 71 840 74 q 751 108 781 71 q 721 150 743 119 q 685 197 699 181 q 506 154 610 154 q 331 190 403 154 q 271 108 272 110 q 208 71 242 71 q 155 94 182 74 q 76 171 128 114 q 211 308 122 229 m 501 650 q 351 485 351 650 q 501 321 351 321 q 615 365 579 321 q 651 485 651 410 q 615 605 651 560 q 501 650 579 650 z "},"ยฅ":{"ha":717,"x_min":65,"x_max":781,"o":"m 86 331 q 83 375 83 349 q 88 431 83 401 l 257 431 q 193 647 221 481 q 158 836 165 814 q 97 913 144 875 l 81 925 l 85 957 q 374 981 226 981 q 419 899 411 954 q 435 731 428 844 q 447 589 442 618 l 454 589 q 535 772 489 650 q 606 986 582 893 q 700 976 644 986 q 781 951 756 965 q 669 733 771 936 q 506 431 568 531 l 668 431 q 647 356 665 393 l 642 342 q 483 346 579 346 l 474 288 l 650 288 q 631 213 647 250 l 624 199 q 463 207 557 204 q 453 39 453 110 q 192 0 393 0 l 185 0 q 211 200 185 61 q 69 185 149 194 q 65 234 65 207 q 69 288 65 261 l 229 288 l 242 343 q 86 331 149 339 z "},"ยฆ":{"ha":386,"x_min":151,"x_max":283,"o":"m 151 -207 l 151 406 l 283 406 l 283 -199 q 151 -207 224 -207 m 283 1107 l 283 554 l 151 554 l 151 1099 q 283 1107 189 1107 z "},"ยง":{"ha":697,"x_min":7,"x_max":689,"o":"m 482 925 q 396 847 396 925 q 538 632 396 774 q 632 510 589 581 q 675 374 675 439 q 617 251 675 308 q 464 158 558 194 q 543 -33 543 58 q 465 -183 543 -124 q 277 -242 388 -242 q 87 -201 167 -242 q 7 -126 7 -160 q 60 -40 10 -86 q 160 21 110 7 q 244 -83 211 -14 q 269 -149 254 -106 q 307 -129 297 -142 q 317 -85 317 -117 q 288 -8 317 -54 q 219 85 260 39 q 138 179 178 131 q 40 397 40 296 q 95 530 40 475 q 242 613 150 585 q 163 806 163 714 q 256 958 163 897 q 458 1019 350 1019 q 627 970 565 1019 q 689 846 689 921 q 606 700 689 771 q 494 765 531 713 q 535 809 517 782 q 553 864 553 836 q 533 908 553 892 q 482 925 513 925 m 432 326 q 432 345 432 326 q 411 396 432 365 q 381 439 390 426 q 314 522 360 469 q 276 438 276 492 q 328 336 276 394 q 349 310 342 319 q 375 282 357 301 q 400 254 393 263 q 432 326 432 286 z "},"ยจ":{"ha":761,"x_min":121,"x_max":646,"o":"m 231 736 q 205 736 231 736 q 150 764 179 736 q 121 835 121 792 q 157 909 121 879 q 244 939 193 939 q 324 915 296 939 q 353 846 353 890 q 317 769 353 801 q 231 736 282 736 m 524 736 q 498 736 524 736 q 443 764 472 736 q 414 835 414 792 q 450 909 414 879 q 538 939 486 939 q 617 915 589 939 q 646 846 646 890 q 610 769 646 801 q 524 736 575 736 z "},"ยฉ":{"ha":1103,"x_min":44,"x_max":1086,"o":"m 767 539 q 628 568 668 539 l 633 693 q 606 701 629 701 q 533 639 563 701 q 503 481 503 576 q 614 303 503 303 q 747 358 692 303 l 800 293 q 790 281 796 289 q 759 253 783 272 q 708 218 735 233 q 550 178 639 178 q 350 250 433 178 q 267 456 267 322 q 367 692 267 590 q 618 793 468 793 q 778 749 714 793 q 843 632 843 706 q 835 574 843 604 q 818 542 826 544 q 767 539 794 539 m 567 -21 q 442 -21 567 -21 q 181 120 317 -21 q 44 478 44 261 q 182 838 44 694 q 568 982 319 982 q 951 842 817 982 q 1086 482 1086 701 q 951 121 1086 263 q 567 -21 817 -21 m 569 885 q 473 885 569 885 q 271 769 376 885 q 165 478 165 653 q 269 190 165 304 q 567 76 374 76 q 865 191 761 76 q 968 483 968 306 q 865 772 968 660 q 569 885 761 885 z "},"ยช":{"ha":575,"x_min":74,"x_max":554,"o":"m 328 471 q 210 431 267 431 q 113 476 153 431 q 74 606 74 522 q 147 831 74 739 q 340 922 219 922 q 418 914 388 922 q 544 876 494 893 q 503 705 522 811 q 485 553 485 599 q 496 539 485 539 l 535 550 l 554 501 q 484 453 531 478 q 393 429 438 429 q 328 471 349 429 m 336 836 q 282 760 304 836 q 260 613 260 683 q 283 542 260 542 q 313 556 296 542 q 363 832 322 674 q 336 836 346 836 z "},"ยซ":{"ha":726,"x_min":61,"x_max":694,"o":"m 313 132 q 158 270 256 172 q 61 402 61 368 q 154 525 61 436 q 351 697 247 614 l 415 640 q 269 410 307 486 q 375 189 304 314 l 313 132 m 592 132 q 438 270 535 172 q 340 402 340 368 q 433 525 340 436 q 631 697 526 614 l 694 640 q 549 410 586 486 q 654 189 583 314 l 592 132 z "},"ยฌ":{"ha":632,"x_min":64,"x_max":561,"o":"m 561 540 l 561 235 q 426 218 514 218 l 426 411 l 64 411 q 72 540 64 496 l 561 540 z "},"ยญ":{"ha":819,"x_min":168,"x_max":685,"o":"m 685 325 l 172 325 q 168 450 168 383 l 681 450 q 685 325 685 374 z "},"ยฎ":{"ha":1103,"x_min":44,"x_max":1086,"o":"m 622 640 q 583 700 622 700 l 560 699 q 548 610 556 669 q 536 519 540 551 q 622 640 622 525 m 363 651 q 333 719 363 672 l 340 756 q 619 788 471 788 q 773 749 713 788 q 833 649 833 711 q 801 540 833 588 q 706 468 768 492 q 760 358 729 411 q 807 306 790 306 l 838 308 l 858 260 q 704 204 788 204 q 606 236 642 204 q 580 274 592 249 q 564 318 568 300 q 551 373 560 336 q 539 428 543 410 l 525 428 q 503 232 504 300 q 342 208 449 208 q 292 215 319 208 q 331 437 299 271 q 363 651 363 603 m 567 -21 q 442 -21 567 -21 q 181 120 317 -21 q 44 478 44 261 q 182 838 44 694 q 568 982 319 982 q 951 842 817 982 q 1086 482 1086 701 q 951 121 1086 263 q 567 -21 817 -21 m 569 885 q 473 885 569 885 q 271 769 376 885 q 165 478 165 653 q 269 190 165 304 q 567 76 374 76 q 865 191 761 76 q 968 483 968 306 q 865 772 968 660 q 569 885 761 885 z "},"ยฏ":{"ha":697,"x_min":183,"x_max":704,"o":"m 188 799 q 183 853 183 819 q 189 922 183 886 l 704 922 l 692 803 q 433 808 603 808 q 188 799 264 808 z "},"ยฐ":{"ha":354,"x_min":51,"x_max":451,"o":"m 254 996 q 300 996 254 996 q 399 955 346 996 q 451 845 451 914 q 399 720 451 776 q 239 664 347 664 q 107 703 163 664 q 51 817 51 742 q 107 944 51 893 q 254 996 163 996 m 190 822 q 190 808 190 822 q 203 775 190 794 q 247 756 215 756 q 294 785 278 756 q 310 841 310 815 q 297 885 310 867 q 255 904 285 904 q 208 876 225 904 q 190 822 190 849 z "},"ยฑ":{"ha":810,"x_min":107,"x_max":693,"o":"m 457 421 l 457 224 q 332 213 415 213 l 322 213 l 322 421 l 107 421 q 113 550 107 504 l 322 550 l 322 744 q 456 751 367 751 l 456 550 l 692 550 q 685 421 692 442 l 457 421 m 107 13 q 121 142 107 104 l 693 142 q 686 13 693 46 l 107 13 z "},"ยฒ":{"ha":551,"x_min":58,"x_max":557,"o":"m 438 479 q 320 507 385 479 q 240 540 256 535 q 126 492 165 492 q 84 520 110 492 q 58 563 58 549 q 92 610 58 576 q 150 644 125 644 q 192 642 175 644 q 283 738 240 676 q 325 852 325 799 q 280 906 325 906 q 190 846 235 906 l 129 889 q 219 984 171 949 q 345 1019 268 1019 q 472 980 422 1019 q 521 877 521 940 q 457 742 521 814 q 315 621 393 669 q 426 604 386 604 q 478 613 467 604 q 503 643 490 622 l 557 624 q 438 479 544 479 z "},"ยณ":{"ha":494,"x_min":60,"x_max":519,"o":"m 114 918 q 201 990 144 960 q 337 1019 257 1019 q 466 988 417 1019 q 515 910 515 956 q 477 831 515 864 q 375 782 439 799 q 519 651 519 765 q 456 528 519 579 q 256 478 393 478 q 120 510 181 478 q 60 599 60 542 q 78 660 60 628 q 233 625 160 660 l 222 551 q 243 547 233 547 q 288 583 275 547 q 301 662 301 618 q 272 721 301 706 q 182 738 243 736 l 181 793 q 224 799 200 794 q 304 882 304 813 q 290 915 304 904 q 256 926 276 926 q 167 878 204 926 l 114 918 z "},"ยด":{"ha":856,"x_min":201,"x_max":638,"o":"m 638 853 q 586 782 638 804 q 225 696 508 746 l 201 765 q 582 982 372 849 q 617 917 597 961 q 638 853 638 872 z "},"ยต":{"ha":756,"x_min":-3,"x_max":763,"o":"m 1 -303 l -3 -250 q 96 319 -3 -25 q 129 463 129 436 q 119 506 129 489 q 79 558 108 524 l 82 579 q 378 604 196 604 q 389 537 389 585 q 351 344 389 489 q 313 167 313 200 q 354 124 313 124 q 401 133 375 124 q 441 315 401 136 q 481 575 481 493 q 694 603 544 603 l 733 603 q 696 359 733 540 q 658 151 658 178 q 668 124 657 124 l 738 143 l 763 74 q 648 12 722 40 q 515 -17 574 -17 q 404 60 422 -17 q 206 -15 301 -6 q 204 -68 204 -43 q 239 -256 204 -179 q 1 -303 149 -292 z "},"ยถ":{"ha":893,"x_min":75,"x_max":899,"o":"m 275 -232 l 233 -232 q 318 219 239 -131 q 140 297 206 224 q 75 503 75 371 q 199 835 75 703 q 533 968 322 968 l 889 968 q 899 881 899 925 q 895 802 899 838 q 882 721 892 767 q 866 647 872 675 q 844 558 860 619 q 822 472 828 497 q 793 356 817 447 q 758 218 769 265 q 731 94 747 171 q 700 -161 700 -46 q 547 -197 619 -197 l 506 -197 q 631 422 508 -50 q 698 724 689 647 q 707 843 707 800 q 632 838 650 843 q 529 315 622 664 q 422 -200 436 -35 q 275 -232 357 -232 z "},"ยท":{"ha":451,"x_min":99,"x_max":364,"o":"m 220 336 q 191 336 220 336 q 130 369 161 336 q 99 455 99 401 q 141 547 99 508 q 242 585 183 585 q 333 553 301 585 q 364 469 364 522 q 322 376 364 417 q 220 336 279 336 z "},"ยธ":{"ha":711,"x_min":181,"x_max":494,"o":"m 340 -132 q 361 -157 340 -157 q 456 -125 401 -157 l 494 -182 q 403 -245 465 -215 q 291 -275 340 -275 q 211 -248 242 -275 q 181 -172 181 -221 q 235 -65 181 -122 q 333 13 289 -7 l 417 4 q 340 -132 340 -68 z "},"ยน":{"ha":433,"x_min":97,"x_max":438,"o":"m 397 1018 l 421 1019 q 438 956 438 992 q 393 738 438 919 q 349 507 349 557 q 188 485 297 485 l 143 485 q 187 699 150 558 q 235 918 224 840 q 190 888 225 918 q 147 853 154 858 l 97 919 l 217 1007 q 397 1018 258 1013 z "},"ยบ":{"ha":460,"x_min":61,"x_max":518,"o":"m 310 824 q 293 824 310 824 q 257 759 276 824 q 238 629 238 694 q 244 541 238 564 q 271 518 251 518 q 324 592 304 518 q 343 744 343 665 q 310 824 343 824 m 518 738 q 449 521 518 617 q 244 425 379 425 q 108 475 156 425 q 61 606 61 525 q 137 831 61 744 q 336 917 213 917 q 474 865 429 917 q 518 738 518 814 z "},"ยป":{"ha":769,"x_min":75,"x_max":710,"o":"m 458 697 q 613 559 515 657 q 710 427 710 461 q 617 304 710 393 q 419 132 524 215 l 356 189 q 501 419 464 343 q 396 640 467 515 l 458 697 m 179 697 q 333 559 236 657 q 431 427 431 461 q 338 304 431 393 q 140 132 244 215 l 75 189 q 221 419 183 343 q 115 640 186 515 l 179 697 z "},"ยผ":{"ha":1097,"x_min":93,"x_max":1074,"o":"m 889 969 l 899 965 q 731 658 839 828 q 523 318 622 488 q 365 -17 424 149 q 268 0 322 -15 q 181 40 214 15 q 433 519 257 254 q 706 1021 613 792 q 889 969 793 1014 m 989 193 q 1025 225 1011 193 l 1074 210 q 1042 128 1068 165 q 961 90 1017 90 l 946 90 q 938 15 938 54 q 774 -8 886 -8 l 743 -8 q 752 65 743 26 q 763 111 761 104 q 668 118 700 118 q 583 104 636 118 q 546 119 567 104 q 525 147 525 135 q 533 171 525 158 q 697 389 665 340 q 785 510 746 457 q 990 528 865 526 q 1004 476 1004 501 q 961 193 1004 394 l 989 193 m 393 1018 l 417 1019 q 433 956 433 992 q 389 738 433 919 q 344 507 344 557 q 183 485 293 485 l 139 485 q 183 699 146 558 q 231 918 219 840 q 185 888 221 918 q 143 853 150 858 l 93 919 l 213 1007 q 393 1018 254 1013 m 707 215 q 778 210 763 213 q 815 403 817 376 q 707 215 732 269 z "},"ยฝ":{"ha":1099,"x_min":93,"x_max":1054,"o":"m 889 969 l 899 965 q 731 658 839 828 q 523 318 622 488 q 365 -17 424 149 q 268 0 322 -15 q 181 40 214 15 q 433 519 257 254 q 706 1021 613 792 q 889 969 793 1014 m 935 -33 q 817 -6 882 -33 q 738 28 753 22 q 624 -21 663 -21 q 581 8 607 -21 q 556 50 556 36 q 589 98 556 64 q 649 132 622 132 q 689 129 675 132 q 780 225 738 164 q 822 340 822 286 q 778 393 822 393 q 686 333 731 393 l 626 376 q 717 472 668 436 q 842 507 765 507 q 969 467 919 507 q 1018 365 1018 428 q 954 229 1018 301 q 813 108 890 157 q 924 92 883 92 q 976 101 964 92 q 1000 131 988 110 l 1054 111 q 935 -33 1042 -33 m 393 1018 l 417 1019 q 433 956 433 992 q 389 738 433 919 q 344 507 344 557 q 183 485 293 485 l 139 485 q 183 699 146 558 q 231 918 219 840 q 185 888 221 918 q 143 853 150 858 l 93 919 l 213 1007 q 393 1018 254 1013 z "},"ยพ":{"ha":1201,"x_min":51,"x_max":1178,"o":"m 993 969 l 1003 965 q 835 658 943 828 q 627 318 726 488 q 469 -17 528 149 q 372 0 426 -15 q 285 40 318 15 q 538 519 361 254 q 810 1021 717 792 q 993 969 897 1014 m 1093 193 q 1129 225 1115 193 l 1178 210 q 1147 128 1172 165 q 1065 90 1121 90 l 1050 90 q 1042 15 1042 54 q 878 -8 990 -8 l 847 -8 q 856 65 847 26 q 867 111 865 104 q 772 118 804 118 q 688 104 739 118 q 650 119 671 104 q 629 147 629 135 q 638 171 629 158 q 801 389 769 340 q 889 510 850 457 q 1094 528 969 526 q 1108 476 1108 501 q 1065 193 1108 394 l 1093 193 m 107 918 q 194 990 138 960 q 330 1019 250 1019 q 459 988 410 1019 q 508 910 508 956 q 470 831 508 864 q 368 782 432 799 q 513 651 513 765 q 449 528 513 579 q 249 478 386 478 q 139 499 190 478 q 63 560 88 519 q 51 601 51 576 q 71 660 51 625 q 226 625 153 660 l 215 551 q 236 547 225 547 q 281 583 268 547 q 294 662 294 618 q 265 721 294 706 q 175 738 236 736 l 174 793 q 217 799 193 794 q 297 882 297 813 q 283 915 297 904 q 249 926 269 926 q 160 878 197 926 l 107 918 m 811 215 q 882 210 867 213 q 919 403 921 376 q 811 215 836 269 z "},"ยฟ":{"ha":511,"x_min":-17,"x_max":485,"o":"m 186 203 q 157 226 186 217 q 142 232 153 228 q 124 238 132 236 q 113 242 117 240 q 144 315 122 285 q 338 273 265 315 q 411 150 411 231 q 358 28 411 99 q 303 -42 339 3 q 163 -262 163 -214 q 207 -287 163 -287 q 315 -139 264 -187 q 424 -195 364 -146 q 485 -273 485 -244 q 421 -346 485 -301 q 269 -390 357 -390 q 60 -323 138 -390 q -17 -151 -17 -256 q 6 -60 -17 -110 q 48 15 29 -11 q 104 86 67 42 q 186 203 186 176 m 325 613 q 356 613 325 613 q 420 582 386 613 q 454 501 454 551 q 409 415 454 451 q 302 379 364 379 q 211 410 240 379 q 182 488 182 440 q 223 574 182 535 q 325 613 264 613 z "},"ร":{"ha":1143,"x_min":-40,"x_max":1296,"o":"m 165 -67 q 22 -12 85 -67 q -40 129 -40 42 q 94 375 -40 258 q 266 470 160 432 q 501 515 372 508 q 629 900 551 642 q 631 920 631 906 q 617 944 631 935 l 617 964 q 865 986 747 986 l 971 981 q 999 919 985 967 q 1017 792 1013 871 q 1022 426 1021 713 q 1296 282 1175 367 q 1265 229 1289 256 q 1219 189 1240 203 l 1200 176 q 1024 306 1125 249 q 1076 111 1031 111 q 1110 118 1092 111 l 1143 42 q 933 -17 1043 -17 q 758 193 758 -17 l 758 392 q 599 413 676 408 q 425 78 517 201 q 165 -67 318 -67 m 115 138 q 132 79 115 103 q 182 56 149 56 q 282 115 231 56 q 384 268 333 174 q 457 411 435 363 q 204 307 293 392 q 115 138 115 222 m 650 1338 q 1010 1131 714 1338 l 974 1064 q 544 1190 771 1136 q 650 1338 594 1338 m 758 560 q 746 840 758 788 q 738 842 744 842 q 729 840 731 842 q 635 514 726 782 q 758 499 689 510 l 758 560 z "},"ร":{"ha":1143,"x_min":-40,"x_max":1296,"o":"m 165 -67 q 22 -12 85 -67 q -40 129 -40 42 q 94 375 -40 258 q 266 470 160 432 q 501 515 372 508 q 629 900 551 642 q 631 920 631 906 q 617 944 631 935 l 617 964 q 865 986 747 986 l 971 981 q 999 919 985 967 q 1017 792 1013 871 q 1022 426 1021 713 q 1296 282 1175 367 q 1265 229 1289 256 q 1219 189 1240 203 l 1200 176 q 1024 306 1125 249 q 1076 111 1031 111 q 1110 118 1092 111 l 1143 42 q 933 -17 1043 -17 q 758 193 758 -17 l 758 392 q 599 413 676 408 q 425 78 517 201 q 165 -67 318 -67 m 115 138 q 132 79 115 103 q 182 56 149 56 q 282 115 231 56 q 384 268 333 174 q 457 411 435 363 q 204 307 293 392 q 115 138 115 222 m 994 1224 q 943 1153 994 1175 q 582 1067 865 1117 l 558 1136 q 939 1353 729 1219 q 974 1288 954 1332 q 994 1224 994 1243 m 758 560 q 746 840 758 788 q 738 842 744 842 q 729 840 731 842 q 635 514 726 782 q 758 499 689 510 l 758 560 z "},"ร":{"ha":1143,"x_min":-40,"x_max":1296,"o":"m 165 -67 q 22 -12 85 -67 q -40 129 -40 42 q 94 375 -40 258 q 266 470 160 432 q 501 515 372 508 q 629 900 551 642 q 631 920 631 906 q 617 944 631 935 l 617 964 q 865 986 747 986 l 971 981 q 999 919 985 967 q 1017 792 1013 871 q 1022 426 1021 713 q 1296 282 1175 367 q 1265 229 1289 256 q 1219 189 1240 203 l 1200 176 q 1024 306 1125 249 q 1076 111 1031 111 q 1110 118 1092 111 l 1143 42 q 933 -17 1043 -17 q 758 193 758 -17 l 758 392 q 599 413 676 408 q 425 78 517 201 q 165 -67 318 -67 m 526 1132 q 723 1277 608 1206 q 884 1349 838 1349 q 993 1265 931 1349 q 1086 1119 1056 1182 l 1028 1069 q 835 1181 903 1151 q 571 1067 726 1149 l 526 1132 m 115 138 q 132 79 115 103 q 182 56 149 56 q 282 115 231 56 q 384 268 333 174 q 457 411 435 363 q 204 307 293 392 q 115 138 115 222 m 758 560 q 746 840 758 788 q 738 842 744 842 q 729 840 731 842 q 635 514 726 782 q 758 499 689 510 l 758 560 z "},"ร":{"ha":1143,"x_min":-40,"x_max":1296,"o":"m 165 -67 q 22 -12 85 -67 q -40 129 -40 42 q 94 375 -40 258 q 266 470 160 432 q 501 515 372 508 q 629 900 551 642 q 631 920 631 906 q 617 944 631 935 l 617 964 q 865 986 747 986 l 971 981 q 999 919 985 967 q 1017 792 1013 871 q 1022 426 1021 713 q 1296 282 1175 367 q 1265 229 1289 256 q 1219 189 1240 203 l 1200 176 q 1024 306 1125 249 q 1076 111 1031 111 q 1110 118 1092 111 l 1143 42 q 933 -17 1043 -17 q 758 193 758 -17 l 758 392 q 599 413 676 408 q 425 78 517 201 q 165 -67 318 -67 m 928 1104 q 807 1126 899 1104 q 685 1149 715 1149 q 636 1135 656 1149 q 597 1086 617 1122 l 525 1103 q 686 1313 544 1313 q 808 1290 717 1313 q 931 1268 899 1268 q 978 1278 963 1268 q 1011 1319 994 1289 l 1081 1306 q 928 1104 1061 1104 m 115 138 q 132 79 115 103 q 182 56 149 56 q 282 115 231 56 q 384 268 333 174 q 457 411 435 363 q 204 307 293 392 q 115 138 115 222 m 758 560 q 746 840 758 788 q 738 842 744 842 q 729 840 731 842 q 635 514 726 782 q 758 499 689 510 l 758 560 z "},"ร":{"ha":1143,"x_min":-40,"x_max":1296,"o":"m 165 -67 q 22 -12 85 -67 q -40 129 -40 42 q 94 375 -40 258 q 266 470 160 432 q 501 515 372 508 q 629 900 551 642 q 631 920 631 906 q 617 944 631 935 l 617 964 q 865 986 747 986 l 971 981 q 999 919 985 967 q 1017 792 1013 871 q 1022 426 1021 713 q 1296 282 1175 367 q 1265 229 1289 256 q 1219 189 1240 203 l 1200 176 q 1024 306 1125 249 q 1076 111 1031 111 q 1110 118 1092 111 l 1143 42 q 933 -17 1043 -17 q 758 193 758 -17 l 758 392 q 599 413 676 408 q 425 78 517 201 q 165 -67 318 -67 m 115 138 q 132 79 115 103 q 182 56 149 56 q 282 115 231 56 q 384 268 333 174 q 457 411 435 363 q 204 307 293 392 q 115 138 115 222 m 938 1107 q 912 1107 938 1107 q 857 1135 886 1107 q 828 1206 828 1163 q 864 1280 828 1250 q 951 1310 900 1310 q 1031 1285 1003 1310 q 1060 1217 1060 1261 q 1024 1140 1060 1172 q 938 1107 989 1107 m 644 1107 q 619 1107 644 1107 q 564 1135 593 1107 q 535 1206 535 1163 q 571 1280 535 1250 q 658 1310 607 1310 q 738 1285 710 1310 q 767 1217 767 1261 q 731 1140 767 1172 q 644 1107 696 1107 m 758 560 q 746 840 758 788 q 738 842 744 842 q 729 840 731 842 q 635 514 726 782 q 758 499 689 510 l 758 560 z "},"ร":{"ha":1143,"x_min":-40,"x_max":1296,"o":"m 165 -67 q 22 -12 85 -67 q -40 129 -40 42 q 94 375 -40 258 q 266 470 160 432 q 501 515 372 508 q 629 900 551 642 q 631 920 631 906 q 617 944 631 935 l 617 964 q 865 986 747 986 l 971 981 q 999 919 985 967 q 1017 792 1013 871 q 1022 426 1021 713 q 1296 282 1175 367 q 1265 229 1289 256 q 1219 189 1240 203 l 1200 176 q 1024 306 1125 249 q 1076 111 1031 111 q 1110 118 1092 111 l 1143 42 q 933 -17 1043 -17 q 758 193 758 -17 l 758 392 q 599 413 676 408 q 425 78 517 201 q 165 -67 318 -67 m 797 1088 q 757 1088 797 1088 q 674 1131 717 1088 q 631 1242 631 1175 q 674 1352 631 1310 q 797 1394 717 1394 q 921 1352 878 1394 q 964 1242 964 1310 q 921 1131 964 1175 q 797 1088 878 1088 m 115 138 q 132 79 115 103 q 182 56 149 56 q 282 115 231 56 q 384 268 333 174 q 457 411 435 363 q 204 307 293 392 q 115 138 115 222 m 758 560 q 746 840 758 788 q 738 842 744 842 q 729 840 731 842 q 635 514 726 782 q 758 499 689 510 l 758 560 m 751 1285 q 743 1276 751 1285 q 735 1242 735 1268 q 751 1199 735 1215 q 797 1182 768 1182 q 854 1242 854 1182 q 797 1301 854 1301 q 751 1285 768 1301 z "},"ร":{"ha":1397,"x_min":-40,"x_max":1397,"o":"m 1025 415 l 1026 353 q 1049 155 1029 213 q 1132 97 1068 97 q 1329 200 1221 97 l 1397 136 q 1205 -10 1321 47 q 976 -67 1089 -67 q 808 3 864 -67 q 754 199 764 61 q 750 338 750 254 l 750 439 q 674 443 703 443 q 606 440 644 443 q 175 -67 415 -67 q 27 -15 94 -67 q -40 136 -40 36 q 106 391 -40 281 q 501 535 251 501 q 622 900 563 697 q 624 920 624 906 q 610 944 624 935 l 610 964 q 869 986 746 986 l 897 986 l 1174 981 q 1333 986 1261 981 q 1338 903 1338 946 q 1267 801 1338 801 q 1171 813 1250 801 q 1066 825 1092 825 q 1021 822 1040 825 q 1024 535 1021 793 q 1296 496 1161 524 q 1285 418 1301 451 q 1260 374 1269 385 l 1250 363 q 1025 415 1149 400 m 115 143 q 134 81 115 107 q 183 56 153 56 q 315 159 243 56 q 456 422 386 263 q 206 311 297 389 q 115 143 115 233 m 742 840 q 732 842 739 842 q 724 840 725 842 q 699 736 725 829 q 642 544 674 643 q 692 546 656 546 q 751 544 728 546 l 754 650 q 742 840 751 796 z "},"ร":{"ha":789,"x_min":68,"x_max":1025,"o":"m 410 -132 q 431 -157 410 -157 q 525 -125 471 -157 l 564 -182 q 472 -245 535 -215 q 360 -275 410 -275 q 281 -248 311 -275 q 250 -178 250 -221 q 283 -90 250 -135 q 358 -14 315 -46 q 147 102 226 0 q 68 368 68 204 q 132 672 68 532 q 315 899 196 811 q 579 986 435 986 q 668 974 621 986 q 867 1038 768 1038 q 960 1023 917 1038 q 1025 988 1004 1008 q 994 897 1014 935 l 989 885 q 849 933 924 933 q 764 917 810 933 q 828 723 828 847 q 763 492 828 599 q 593 386 697 386 q 486 439 528 386 q 444 574 444 492 q 563 879 444 740 q 405 734 468 871 q 342 433 342 597 q 490 135 342 135 q 739 282 601 135 l 804 226 q 589 31 718 99 q 472 -10 532 1 q 410 -132 410 -76 m 599 492 q 667 560 640 492 q 694 718 694 629 q 657 847 694 807 q 542 578 542 735 q 557 514 542 536 q 599 492 572 492 z "},"ร":{"ha":779,"x_min":72,"x_max":997,"o":"m 808 944 q 726 929 768 944 q 785 806 785 879 q 742 675 785 733 q 638 617 700 617 q 538 656 575 617 q 501 758 501 694 q 540 878 501 822 q 456 813 489 864 q 422 686 422 763 q 444 557 422 610 q 547 564 493 564 q 645 537 600 564 q 690 461 690 510 q 650 378 690 413 q 543 344 610 344 q 386 397 476 344 q 339 270 339 335 q 376 169 339 206 q 475 133 414 133 q 721 264 601 133 l 781 214 q 708 125 753 169 q 621 53 663 81 q 515 4 579 25 q 382 -17 450 -17 q 163 48 253 -17 q 72 247 72 113 q 124 391 72 326 q 263 499 176 456 q 186 694 186 586 q 293 909 186 832 q 540 986 400 986 q 636 974 593 986 q 841 1038 732 1038 q 997 981 950 1038 q 967 900 994 932 l 957 889 q 808 944 906 944 m 386 1338 q 746 1131 450 1338 l 710 1064 q 281 1190 507 1136 q 386 1338 331 1338 m 675 783 q 633 869 675 844 q 593 765 593 822 q 631 707 593 707 q 663 728 650 707 q 675 783 675 750 m 549 490 q 492 479 521 490 q 563 438 522 438 q 603 463 603 438 q 549 490 603 490 z "},"ร":{"ha":779,"x_min":72,"x_max":997,"o":"m 808 944 q 726 929 768 944 q 785 806 785 879 q 742 675 785 733 q 638 617 700 617 q 538 656 575 617 q 501 758 501 694 q 540 878 501 822 q 456 813 489 864 q 422 686 422 763 q 444 557 422 610 q 547 564 493 564 q 645 537 600 564 q 690 461 690 510 q 650 378 690 413 q 543 344 610 344 q 386 397 476 344 q 339 270 339 335 q 376 169 339 206 q 475 133 414 133 q 721 264 601 133 l 781 214 q 708 125 753 169 q 621 53 663 81 q 515 4 579 25 q 382 -17 450 -17 q 163 48 253 -17 q 72 247 72 113 q 124 391 72 326 q 263 499 176 456 q 186 694 186 586 q 293 909 186 832 q 540 986 400 986 q 636 974 593 986 q 841 1038 732 1038 q 997 981 950 1038 q 967 900 994 932 l 957 889 q 808 944 906 944 m 783 1224 q 732 1153 783 1175 q 371 1067 654 1117 l 347 1136 q 728 1353 518 1219 q 763 1288 743 1332 q 783 1224 783 1243 m 675 783 q 633 869 675 844 q 593 765 593 822 q 631 707 593 707 q 663 728 650 707 q 675 783 675 750 m 549 490 q 492 479 521 490 q 563 438 522 438 q 603 463 603 438 q 549 490 603 490 z "},"ร":{"ha":779,"x_min":72,"x_max":997,"o":"m 808 944 q 726 929 768 944 q 785 806 785 879 q 742 675 785 733 q 638 617 700 617 q 538 656 575 617 q 501 758 501 694 q 540 878 501 822 q 456 813 489 864 q 422 686 422 763 q 444 557 422 610 q 547 564 493 564 q 645 537 600 564 q 690 461 690 510 q 650 378 690 413 q 543 344 610 344 q 386 397 476 344 q 339 270 339 335 q 376 169 339 206 q 475 133 414 133 q 721 264 601 133 l 781 214 q 708 125 753 169 q 621 53 663 81 q 515 4 579 25 q 382 -17 450 -17 q 163 48 253 -17 q 72 247 72 113 q 124 391 72 326 q 263 499 176 456 q 186 694 186 586 q 293 909 186 832 q 540 986 400 986 q 636 974 593 986 q 841 1038 732 1038 q 997 981 950 1038 q 967 900 994 932 l 957 889 q 808 944 906 944 m 256 1132 q 452 1277 338 1206 q 613 1349 567 1349 q 722 1265 660 1349 q 815 1119 785 1182 l 757 1069 q 564 1181 632 1151 q 300 1067 456 1149 l 256 1132 m 675 783 q 633 869 675 844 q 593 765 593 822 q 631 707 593 707 q 663 728 650 707 q 675 783 675 750 m 549 490 q 492 479 521 490 q 563 438 522 438 q 603 463 603 438 q 549 490 603 490 z "},"ร":{"ha":779,"x_min":72,"x_max":997,"o":"m 808 944 q 726 929 768 944 q 785 806 785 879 q 742 675 785 733 q 638 617 700 617 q 538 656 575 617 q 501 758 501 694 q 540 878 501 822 q 456 813 489 864 q 422 686 422 763 q 444 557 422 610 q 547 564 493 564 q 645 537 600 564 q 690 461 690 510 q 650 378 690 413 q 543 344 610 344 q 386 397 476 344 q 339 270 339 335 q 376 169 339 206 q 475 133 414 133 q 721 264 601 133 l 781 214 q 708 125 753 169 q 621 53 663 81 q 515 4 579 25 q 382 -17 450 -17 q 163 48 253 -17 q 72 247 72 113 q 124 391 72 326 q 263 499 176 456 q 186 694 186 586 q 293 909 186 832 q 540 986 400 986 q 636 974 593 986 q 841 1038 732 1038 q 997 981 950 1038 q 967 900 994 932 l 957 889 q 808 944 906 944 m 686 1107 q 660 1107 686 1107 q 606 1135 635 1107 q 576 1206 576 1163 q 613 1280 576 1250 q 700 1310 649 1310 q 780 1285 751 1310 q 808 1217 808 1261 q 773 1140 808 1172 q 686 1107 738 1107 m 393 1107 q 367 1107 393 1107 q 313 1135 342 1107 q 283 1206 283 1163 q 319 1280 283 1250 q 407 1310 356 1310 q 487 1285 458 1310 q 515 1217 515 1261 q 480 1140 515 1172 q 393 1107 444 1107 m 675 783 q 633 869 675 844 q 593 765 593 822 q 631 707 593 707 q 663 728 650 707 q 675 783 675 750 m 549 490 q 492 479 521 490 q 563 438 522 438 q 603 463 603 438 q 549 490 603 490 z "},"ร":{"ha":631,"x_min":10,"x_max":646,"o":"m 422 968 q 581 890 536 968 q 625 680 625 811 q 598 424 625 549 q 520 192 571 299 q 388 17 469 85 q 210 -51 306 -51 q 63 3 115 -51 q 10 146 10 58 q 96 333 10 233 q 356 499 182 432 q 369 669 369 582 q 357 788 369 756 q 307 819 344 819 q 133 738 249 819 l 81 810 q 422 968 258 968 m 117 158 q 134 107 117 129 q 179 85 151 85 q 275 169 231 85 q 343 388 319 254 q 178 282 240 350 q 117 158 117 214 m 286 1338 q 646 1131 350 1338 l 610 1064 q 181 1190 407 1136 q 286 1338 231 1338 z "},"ร":{"ha":610,"x_min":10,"x_max":625,"o":"m 422 968 q 581 890 536 968 q 625 680 625 811 q 598 424 625 549 q 520 192 571 299 q 388 17 469 85 q 210 -51 306 -51 q 63 3 115 -51 q 10 146 10 58 q 96 333 10 233 q 356 499 182 432 q 369 669 369 582 q 357 788 369 756 q 307 819 344 819 q 133 738 249 819 l 81 810 q 422 968 258 968 m 117 158 q 134 107 117 129 q 179 85 151 85 q 275 169 231 85 q 343 388 319 254 q 178 282 240 350 q 117 158 117 214 m 607 1224 q 556 1153 607 1175 q 194 1067 478 1117 l 171 1136 q 551 1353 342 1219 q 587 1288 567 1332 q 607 1224 607 1243 z "},"ร":{"ha":615,"x_min":10,"x_max":654,"o":"m 422 968 q 581 890 536 968 q 625 680 625 811 q 598 424 625 549 q 520 192 571 299 q 388 17 469 85 q 210 -51 306 -51 q 63 3 115 -51 q 10 146 10 58 q 96 333 10 233 q 356 499 182 432 q 369 669 369 582 q 357 788 369 756 q 307 819 344 819 q 133 738 249 819 l 81 810 q 422 968 258 968 m 117 158 q 134 107 117 129 q 179 85 151 85 q 275 169 231 85 q 343 388 319 254 q 178 282 240 350 q 117 158 117 214 m 94 1132 q 291 1277 176 1206 q 452 1349 406 1349 q 561 1265 499 1349 q 654 1119 624 1182 l 596 1069 q 403 1181 471 1151 q 139 1067 294 1149 l 94 1132 z "},"ร":{"ha":610,"x_min":10,"x_max":657,"o":"m 422 968 q 581 890 536 968 q 625 680 625 811 q 598 424 625 549 q 520 192 571 299 q 388 17 469 85 q 210 -51 306 -51 q 63 3 115 -51 q 10 146 10 58 q 96 333 10 233 q 356 499 182 432 q 369 669 369 582 q 357 788 369 756 q 307 819 344 819 q 133 738 249 819 l 81 810 q 422 968 258 968 m 117 158 q 134 107 117 129 q 179 85 151 85 q 275 169 231 85 q 343 388 319 254 q 178 282 240 350 q 117 158 117 214 m 242 1107 q 216 1107 242 1107 q 161 1135 190 1107 q 132 1206 132 1163 q 168 1280 132 1250 q 256 1310 204 1310 q 335 1285 307 1310 q 364 1217 364 1261 q 328 1140 364 1172 q 242 1107 293 1107 m 535 1107 q 509 1107 535 1107 q 454 1135 483 1107 q 425 1206 425 1163 q 461 1280 425 1250 q 549 1310 497 1310 q 628 1285 600 1310 q 657 1217 657 1261 q 622 1140 657 1172 q 535 1107 586 1107 z "},"ร":{"ha":1144,"x_min":33,"x_max":1140,"o":"m 33 113 q 33 140 33 113 q 79 205 33 168 q 183 242 125 242 q 307 214 240 242 q 325 274 313 229 q 339 331 338 318 q 50 614 50 400 q 226 894 50 785 q 643 1003 403 1003 q 989 910 850 1003 q 1100 779 1060 863 q 1140 569 1140 696 q 1081 304 1140 442 q 910 74 1022 167 q 663 -18 799 -18 q 385 68 528 -18 q 190 -17 289 -17 q 78 20 122 -17 q 33 113 33 57 m 585 894 q 289 808 419 894 q 158 618 158 722 q 361 439 158 483 q 394 679 394 610 q 364 750 394 717 l 364 769 q 593 811 456 811 l 665 806 q 674 743 674 790 q 608 421 674 594 q 750 450 699 429 q 758 400 758 425 q 743 319 758 350 q 558 307 704 307 q 457 144 514 217 q 608 101 546 101 q 722 158 669 101 q 806 300 775 215 q 867 619 867 474 q 585 894 867 894 m 154 124 q 197 88 154 88 q 271 138 239 88 q 205 161 228 161 q 168 151 182 161 q 154 124 154 140 z "},"ร":{"ha":1135,"x_min":24,"x_max":1110,"o":"m 443 968 q 611 843 574 968 q 706 910 674 889 q 805 958 738 931 q 942 986 872 986 q 1061 942 1013 986 q 1110 818 1110 899 q 1050 499 1110 738 q 990 169 990 261 q 1011 129 990 129 q 1076 146 1035 129 l 1106 75 q 854 -17 978 -17 q 753 19 789 -17 q 718 125 718 56 q 776 431 718 194 q 833 735 833 668 q 782 803 833 803 q 628 733 731 803 q 631 674 631 694 q 576 307 631 474 q 425 44 521 140 q 214 -51 329 -51 q 76 4 128 -51 q 24 164 24 60 q 114 410 24 268 q 374 699 204 551 q 362 794 374 768 q 325 821 350 821 q 146 735 265 821 l 90 804 q 253 917 156 867 q 443 968 351 968 m 903 1104 q 782 1126 874 1104 q 660 1149 690 1149 q 611 1135 631 1149 q 572 1086 592 1122 l 500 1103 q 661 1313 519 1313 q 783 1290 692 1313 q 906 1268 874 1268 q 953 1278 938 1268 q 986 1319 969 1289 l 1056 1306 q 903 1104 1036 1104 m 132 169 q 149 108 132 132 q 192 85 165 85 q 312 222 258 85 q 375 568 365 358 q 203 366 274 482 q 132 169 132 250 z "},"ร":{"ha":917,"x_min":44,"x_max":1067,"o":"m 433 86 q 538 149 492 86 q 607 314 583 213 q 393 594 393 351 q 470 847 393 743 q 665 951 547 951 q 847 858 782 951 q 913 615 913 764 q 881 418 913 535 q 1011 463 946 426 l 1035 475 q 1065 381 1061 433 l 1067 361 q 971 324 1036 343 q 846 300 906 304 q 670 70 783 157 q 389 -17 557 -17 q 133 91 221 -17 q 44 388 44 199 q 138 737 44 578 q 407 985 231 896 l 454 910 q 346 681 374 803 q 318 386 318 558 q 433 86 318 86 m 600 803 q 537 747 568 803 q 506 611 506 692 q 538 482 506 531 q 626 426 571 433 q 644 673 644 543 q 600 803 644 803 m 411 1338 q 771 1131 475 1338 l 735 1064 q 306 1190 532 1136 q 411 1338 356 1338 z "},"ร":{"ha":917,"x_min":44,"x_max":1067,"o":"m 433 86 q 538 149 492 86 q 607 314 583 213 q 393 594 393 351 q 470 847 393 743 q 665 951 547 951 q 847 858 782 951 q 913 615 913 764 q 881 418 913 535 q 1011 463 946 426 l 1035 475 q 1065 381 1061 433 l 1067 361 q 971 324 1036 343 q 846 300 906 304 q 670 70 783 157 q 389 -17 557 -17 q 133 91 221 -17 q 44 388 44 199 q 138 737 44 578 q 407 985 231 896 l 454 910 q 346 681 374 803 q 318 386 318 558 q 433 86 318 86 m 600 803 q 537 747 568 803 q 506 611 506 692 q 538 482 506 531 q 626 426 571 433 q 644 673 644 543 q 600 803 644 803 m 835 1224 q 783 1153 835 1175 q 422 1067 706 1117 l 399 1136 q 779 1353 569 1219 q 815 1288 794 1332 q 835 1224 835 1243 z "},"ร":{"ha":917,"x_min":44,"x_max":1067,"o":"m 433 86 q 538 149 492 86 q 607 314 583 213 q 393 594 393 351 q 470 847 393 743 q 665 951 547 951 q 847 858 782 951 q 913 615 913 764 q 881 418 913 535 q 1011 463 946 426 l 1035 475 q 1065 381 1061 433 l 1067 361 q 971 324 1036 343 q 846 300 906 304 q 670 70 783 157 q 389 -17 557 -17 q 133 91 221 -17 q 44 388 44 199 q 138 737 44 578 q 407 985 231 896 l 454 910 q 346 681 374 803 q 318 386 318 558 q 433 86 318 86 m 600 803 q 537 747 568 803 q 506 611 506 692 q 538 482 506 531 q 626 426 571 433 q 644 673 644 543 q 600 803 644 803 m 297 1122 q 494 1267 379 1196 q 655 1339 608 1339 q 764 1256 701 1339 q 857 1110 826 1172 l 799 1060 q 606 1171 674 1142 q 342 1057 497 1139 l 297 1122 z "},"ร":{"ha":917,"x_min":44,"x_max":1067,"o":"m 433 86 q 538 149 492 86 q 607 314 583 213 q 393 594 393 351 q 470 847 393 743 q 665 951 547 951 q 847 858 782 951 q 913 615 913 764 q 881 418 913 535 q 1011 463 946 426 l 1035 475 q 1065 381 1061 433 l 1067 361 q 971 324 1036 343 q 846 300 906 304 q 670 70 783 157 q 389 -17 557 -17 q 133 91 221 -17 q 44 388 44 199 q 138 737 44 578 q 407 985 231 896 l 454 910 q 346 681 374 803 q 318 386 318 558 q 433 86 318 86 m 600 803 q 537 747 568 803 q 506 611 506 692 q 538 482 506 531 q 626 426 571 433 q 644 673 644 543 q 600 803 644 803 m 726 1104 q 606 1126 697 1104 q 484 1149 514 1149 q 435 1135 454 1149 q 396 1086 415 1122 l 324 1103 q 485 1313 343 1313 q 606 1290 515 1313 q 729 1268 697 1268 q 777 1278 761 1268 q 810 1319 793 1289 l 879 1306 q 726 1104 860 1104 z "},"ร":{"ha":917,"x_min":44,"x_max":1067,"o":"m 433 86 q 538 149 492 86 q 607 314 583 213 q 393 594 393 351 q 470 847 393 743 q 665 951 547 951 q 847 858 782 951 q 913 615 913 764 q 881 418 913 535 q 1011 463 946 426 l 1035 475 q 1065 381 1061 433 l 1067 361 q 971 324 1036 343 q 846 300 906 304 q 670 70 783 157 q 389 -17 557 -17 q 133 91 221 -17 q 44 388 44 199 q 138 737 44 578 q 407 985 231 896 l 454 910 q 346 681 374 803 q 318 386 318 558 q 433 86 318 86 m 600 803 q 537 747 568 803 q 506 611 506 692 q 538 482 506 531 q 626 426 571 433 q 644 673 644 543 q 600 803 644 803 m 446 1107 q 420 1107 446 1107 q 365 1135 394 1107 q 336 1206 336 1163 q 372 1280 336 1250 q 460 1310 408 1310 q 540 1285 511 1310 q 568 1217 568 1261 q 533 1140 568 1172 q 446 1107 497 1107 m 739 1107 q 713 1107 739 1107 q 658 1135 688 1107 q 629 1206 629 1163 q 665 1280 629 1250 q 753 1310 701 1310 q 833 1285 804 1310 q 861 1217 861 1261 q 826 1140 861 1172 q 739 1107 790 1107 z "},"ร":{"ha":710,"x_min":97,"x_max":624,"o":"m 539 126 l 360 304 l 182 126 q 97 224 111 192 l 269 396 l 100 565 q 188 661 125 601 l 360 488 l 533 661 q 621 565 596 601 l 451 396 l 624 224 q 539 126 604 188 z "},"ร":{"ha":897,"x_min":43,"x_max":911,"o":"m 779 1078 q 728 947 769 1056 q 866 808 821 900 q 911 613 911 717 q 881 404 911 510 q 792 202 851 299 q 629 44 733 106 q 392 -17 525 -17 q 346 -14 374 -17 l 299 -144 q 243 -131 279 -143 q 183 -106 206 -119 q 229 19 204 -43 q 91 158 139 64 q 43 394 43 253 q 106 674 43 536 q 287 899 169 813 q 549 986 404 986 q 607 982 581 986 q 658 1114 614 999 q 732 1099 694 1111 q 779 1078 769 1086 m 432 89 q 530 145 488 89 q 594 290 572 201 q 640 653 640 465 q 638 724 640 674 q 388 97 467 301 q 432 89 406 89 m 317 251 l 564 874 q 529 881 547 881 q 434 831 476 881 q 367 703 392 782 q 315 357 315 542 q 317 251 315 267 z "},"ร":{"ha":1054,"x_min":4,"x_max":1128,"o":"m 576 807 q 576 763 576 807 q 503 492 576 718 q 429 210 429 267 q 477 153 429 153 q 603 225 525 153 q 628 399 608 303 q 776 847 689 708 q 981 986 864 986 q 1091 948 1054 986 q 1128 847 1128 910 q 1051 597 1128 738 q 868 331 974 456 q 865 231 865 275 q 872 150 865 188 q 904 113 879 113 q 958 124 925 113 l 983 51 q 778 -17 876 -17 q 610 101 640 -17 q 317 -18 451 -18 q 199 26 242 -18 q 157 142 157 71 q 226 442 157 213 q 4 697 4 546 q 63 851 4 782 q 201 953 122 919 q 368 986 279 986 q 517 941 457 986 q 576 807 576 896 m 433 1338 q 793 1131 497 1338 l 757 1064 q 328 1190 554 1136 q 433 1338 378 1338 m 304 790 q 253 861 304 861 q 161 817 206 861 q 117 714 117 772 q 257 550 117 604 q 304 790 304 700 m 1008 869 q 946 756 979 869 q 889 492 913 642 q 981 683 940 572 q 1022 832 1022 794 q 1008 869 1022 869 z "},"ร":{"ha":1054,"x_min":4,"x_max":1128,"o":"m 576 807 q 576 763 576 807 q 503 492 576 718 q 429 210 429 267 q 477 153 429 153 q 603 225 525 153 q 628 399 608 303 q 776 847 689 708 q 981 986 864 986 q 1091 948 1054 986 q 1128 847 1128 910 q 1051 597 1128 738 q 868 331 974 456 q 865 231 865 275 q 872 150 865 188 q 904 113 879 113 q 958 124 925 113 l 983 51 q 778 -17 876 -17 q 610 101 640 -17 q 317 -18 451 -18 q 199 26 242 -18 q 157 142 157 71 q 226 442 157 213 q 4 697 4 546 q 63 851 4 782 q 201 953 122 919 q 368 986 279 986 q 517 941 457 986 q 576 807 576 896 m 981 1224 q 929 1153 981 1175 q 568 1067 851 1117 l 544 1136 q 925 1353 715 1219 q 960 1288 940 1332 q 981 1224 981 1243 m 304 790 q 253 861 304 861 q 161 817 206 861 q 117 714 117 772 q 257 550 117 604 q 304 790 304 700 m 1008 869 q 946 756 979 869 q 889 492 913 642 q 981 683 940 572 q 1022 832 1022 794 q 1008 869 1022 869 z "},"ร":{"ha":1054,"x_min":4,"x_max":1128,"o":"m 576 807 q 576 763 576 807 q 503 492 576 718 q 429 210 429 267 q 477 153 429 153 q 603 225 525 153 q 628 399 608 303 q 776 847 689 708 q 981 986 864 986 q 1091 948 1054 986 q 1128 847 1128 910 q 1051 597 1128 738 q 868 331 974 456 q 865 231 865 275 q 872 150 865 188 q 904 113 879 113 q 958 124 925 113 l 983 51 q 778 -17 876 -17 q 610 101 640 -17 q 317 -18 451 -18 q 199 26 242 -18 q 157 142 157 71 q 226 442 157 213 q 4 697 4 546 q 63 851 4 782 q 201 953 122 919 q 368 986 279 986 q 517 941 457 986 q 576 807 576 896 m 401 1132 q 598 1277 483 1206 q 759 1349 713 1349 q 868 1265 806 1349 q 961 1119 931 1182 l 903 1069 q 710 1181 778 1151 q 446 1067 601 1149 l 401 1132 m 304 790 q 253 861 304 861 q 161 817 206 861 q 117 714 117 772 q 257 550 117 604 q 304 790 304 700 m 1008 869 q 946 756 979 869 q 889 492 913 642 q 981 683 940 572 q 1022 832 1022 794 q 1008 869 1022 869 z "},"ร":{"ha":1054,"x_min":4,"x_max":1128,"o":"m 576 807 q 576 763 576 807 q 503 492 576 718 q 429 210 429 267 q 477 153 429 153 q 603 225 525 153 q 628 399 608 303 q 776 847 689 708 q 981 986 864 986 q 1091 948 1054 986 q 1128 847 1128 910 q 1051 597 1128 738 q 868 331 974 456 q 865 231 865 275 q 872 150 865 188 q 904 113 879 113 q 958 124 925 113 l 983 51 q 778 -17 876 -17 q 610 101 640 -17 q 317 -18 451 -18 q 199 26 242 -18 q 157 142 157 71 q 226 442 157 213 q 4 697 4 546 q 63 851 4 782 q 201 953 122 919 q 368 986 279 986 q 517 941 457 986 q 576 807 576 896 m 304 790 q 253 861 304 861 q 161 817 206 861 q 117 714 117 772 q 257 550 117 604 q 304 790 304 700 m 851 1107 q 826 1107 851 1107 q 771 1135 800 1107 q 742 1206 742 1163 q 778 1280 742 1250 q 865 1310 814 1310 q 945 1285 917 1310 q 974 1217 974 1261 q 938 1140 974 1172 q 851 1107 903 1107 m 558 1107 q 533 1107 558 1107 q 478 1135 507 1107 q 449 1206 449 1163 q 485 1280 449 1250 q 572 1310 521 1310 q 652 1285 624 1310 q 681 1217 681 1261 q 645 1140 681 1172 q 558 1107 610 1107 m 1008 869 q 946 756 979 869 q 889 492 913 642 q 981 683 940 572 q 1022 832 1022 794 q 1008 869 1022 869 z "},"ร":{"ha":1088,"x_min":11,"x_max":1147,"o":"m 1147 842 q 1075 608 1147 747 q 894 364 1003 468 q 817 74 858 189 q 1047 56 933 74 q 1006 -78 1047 -7 q 768 -42 888 -47 q 400 -311 636 -311 q 262 -276 313 -311 q 211 -179 211 -242 q 299 -35 211 -100 q 568 69 386 31 l 590 147 q 332 67 447 67 q 224 101 264 67 q 185 197 185 136 q 238 442 185 258 q 11 700 11 546 q 69 851 11 783 q 210 952 128 918 q 378 986 292 986 q 526 941 464 986 q 589 814 589 896 q 523 526 589 732 q 457 285 457 319 q 502 240 457 240 q 624 292 547 240 l 638 365 q 696 644 676 582 q 733 756 715 706 q 767 834 750 806 q 809 896 785 863 q 860 946 833 929 q 997 986 924 986 q 1108 947 1069 986 q 1147 842 1147 907 m 974 1224 q 922 1153 974 1175 q 561 1067 844 1117 l 538 1136 q 918 1353 708 1219 q 953 1288 933 1332 q 974 1224 974 1243 m 267 550 q 317 785 317 708 q 265 861 317 861 q 169 819 214 861 q 124 713 124 778 q 267 550 124 607 m 354 -154 q 392 -182 354 -182 q 469 -142 429 -182 q 540 -40 510 -103 q 406 -90 457 -56 q 354 -154 354 -124 m 1025 869 q 985 803 1003 869 q 932 550 957 696 q 1006 702 972 611 q 1039 831 1039 793 q 1025 869 1039 869 z "},"ร":{"ha":811,"x_min":57,"x_max":843,"o":"m 75 -4 l 57 -4 q 138 406 57 64 q 218 818 218 747 q 203 869 218 840 q 175 917 189 899 l 161 935 l 165 963 q 471 986 243 986 q 496 885 496 964 q 490 829 496 874 q 531 831 504 831 q 843 594 843 831 q 730 331 843 439 q 403 224 617 224 l 358 224 q 336 24 336 104 q 75 -4 272 -4 m 572 611 q 555 695 572 663 q 512 728 538 728 q 468 721 486 728 q 381 340 383 354 l 386 340 q 522 416 472 340 q 572 611 572 492 z "},"ร":{"ha":921,"x_min":35,"x_max":929,"o":"m 929 214 q 840 47 929 110 q 636 -15 751 -15 q 486 24 561 -15 q 411 99 411 64 q 460 178 411 124 q 549 242 508 232 q 613 193 575 233 q 682 92 651 153 q 718 122 718 97 q 594 300 718 181 q 510 406 549 344 q 471 513 471 468 q 488 581 471 557 q 528 624 504 606 q 575 667 551 643 q 633 832 633 721 q 617 899 633 875 q 569 924 600 924 q 474 765 514 924 q 413 408 433 606 q 354 22 392 211 q 267 -215 317 -168 q 140 -201 213 -215 q 35 -171 67 -187 q 174 489 124 83 q 65 476 103 485 q 64 518 64 493 q 74 599 64 543 l 190 599 q 333 928 239 840 q 610 1015 426 1015 q 842 944 767 1015 q 885 847 885 903 q 858 750 885 792 q 799 686 832 708 q 740 635 767 664 q 714 575 714 606 q 747 501 714 544 q 822 417 781 457 q 896 322 863 378 q 929 214 929 265 z "},"ร":{"ha":738,"x_min":40,"x_max":758,"o":"m 321 967 q 681 760 385 967 l 644 693 q 215 819 442 765 q 321 967 265 967 m 719 563 q 669 348 690 472 q 649 174 649 224 q 664 125 649 125 l 733 144 l 758 75 q 645 12 714 40 q 524 -17 576 -17 q 410 61 433 -17 q 216 -17 300 -17 q 86 44 132 -17 q 40 219 40 106 q 121 496 40 376 q 333 615 201 615 q 481 575 406 615 q 499 611 492 600 q 719 563 599 611 m 301 237 q 301 202 301 237 q 311 149 301 167 q 347 131 321 131 q 399 151 374 131 q 451 489 404 313 q 403 501 431 501 q 355 471 376 501 q 322 394 333 440 q 301 237 301 307 z "},"รก":{"ha":738,"x_min":40,"x_max":758,"o":"m 717 853 q 665 782 717 804 q 304 696 588 746 l 281 765 q 661 982 451 849 q 697 917 676 961 q 717 853 717 872 m 719 563 q 669 348 690 472 q 649 174 649 224 q 664 125 649 125 l 733 144 l 758 75 q 645 12 714 40 q 524 -17 576 -17 q 410 61 433 -17 q 216 -17 300 -17 q 86 44 132 -17 q 40 219 40 106 q 121 496 40 376 q 333 615 201 615 q 481 575 406 615 q 499 611 492 600 q 719 563 599 611 m 301 237 q 301 202 301 237 q 311 149 301 167 q 347 131 321 131 q 399 151 374 131 q 451 489 404 313 q 403 501 431 501 q 355 471 376 501 q 322 394 333 440 q 301 237 301 307 z "},"รข":{"ha":738,"x_min":40,"x_max":758,"o":"m 197 761 q 394 906 279 835 q 555 978 508 978 q 664 894 601 978 q 757 749 726 811 l 699 699 q 506 810 574 781 q 242 696 397 778 l 197 761 m 719 563 q 669 348 690 472 q 649 174 649 224 q 664 125 649 125 l 733 144 l 758 75 q 645 12 714 40 q 524 -17 576 -17 q 410 61 433 -17 q 216 -17 300 -17 q 86 44 132 -17 q 40 219 40 106 q 121 496 40 376 q 333 615 201 615 q 481 575 406 615 q 499 611 492 600 q 719 563 599 611 m 301 237 q 301 202 301 237 q 311 149 301 167 q 347 131 321 131 q 399 151 374 131 q 451 489 404 313 q 403 501 431 501 q 355 471 376 501 q 322 394 333 440 q 301 237 301 307 z "},"รฃ":{"ha":731,"x_min":40,"x_max":765,"o":"m 613 733 q 492 756 583 733 q 370 778 400 778 q 321 765 340 778 q 282 715 301 751 l 210 732 q 371 942 229 942 q 492 919 401 942 q 615 897 583 897 q 663 908 647 897 q 696 949 679 918 l 765 935 q 613 733 746 733 m 719 563 q 669 348 690 472 q 649 174 649 224 q 664 125 649 125 l 733 144 l 758 75 q 645 12 714 40 q 524 -17 576 -17 q 410 61 433 -17 q 216 -17 300 -17 q 86 44 132 -17 q 40 219 40 106 q 121 496 40 376 q 333 615 201 615 q 481 575 406 615 q 499 611 492 600 q 719 563 599 611 m 301 237 q 301 202 301 237 q 311 149 301 167 q 347 131 321 131 q 399 151 374 131 q 451 489 404 313 q 403 501 431 501 q 355 471 376 501 q 322 394 333 440 q 301 237 301 307 z "},"รค":{"ha":738,"x_min":40,"x_max":758,"o":"m 311 736 q 285 736 311 736 q 231 764 260 736 q 201 835 201 792 q 238 909 201 879 q 325 939 274 939 q 405 915 376 939 q 433 846 433 890 q 398 769 433 801 q 311 736 363 736 m 604 736 q 578 736 604 736 q 524 764 553 736 q 494 835 494 792 q 531 909 494 879 q 618 939 567 939 q 698 915 669 939 q 726 846 726 890 q 691 769 726 801 q 604 736 656 736 m 719 563 q 669 348 690 472 q 649 174 649 224 q 664 125 649 125 l 733 144 l 758 75 q 645 12 714 40 q 524 -17 576 -17 q 410 61 433 -17 q 216 -17 300 -17 q 86 44 132 -17 q 40 219 40 106 q 121 496 40 376 q 333 615 201 615 q 481 575 406 615 q 499 611 492 600 q 719 563 599 611 m 301 237 q 301 202 301 237 q 311 149 301 167 q 347 131 321 131 q 399 151 374 131 q 451 489 404 313 q 403 501 431 501 q 355 471 376 501 q 322 394 333 440 q 301 237 301 307 z "},"รฅ":{"ha":738,"x_min":40,"x_max":758,"o":"m 468 717 q 428 717 468 717 q 344 760 388 717 q 301 872 301 804 q 344 981 301 939 q 468 1024 388 1024 q 592 981 549 1024 q 635 872 635 939 q 592 760 635 804 q 468 717 549 717 m 422 914 q 414 906 422 914 q 406 871 406 897 q 422 828 406 844 q 468 811 439 811 q 525 871 525 811 q 468 931 525 931 q 422 914 439 931 m 719 563 q 669 348 690 472 q 649 174 649 224 q 664 125 649 125 l 733 144 l 758 75 q 645 12 714 40 q 524 -17 576 -17 q 410 61 433 -17 q 216 -17 300 -17 q 86 44 132 -17 q 40 219 40 106 q 121 496 40 376 q 333 615 201 615 q 481 575 406 615 q 499 611 492 600 q 719 563 599 611 m 301 237 q 301 202 301 237 q 311 149 301 167 q 347 131 321 131 q 399 151 374 131 q 451 489 404 313 q 403 501 431 501 q 355 471 376 501 q 322 394 333 440 q 301 237 301 307 z "},"รฆ":{"ha":922,"x_min":40,"x_max":954,"o":"m 310 615 q 456 574 383 615 q 474 611 463 592 q 611 590 549 608 q 760 615 675 615 q 900 575 846 615 q 954 473 954 535 q 922 370 954 411 q 844 307 890 329 q 679 250 747 258 l 647 246 q 674 150 647 185 q 739 115 700 115 q 812 128 778 115 q 864 156 846 142 l 882 169 l 922 101 q 908 89 917 97 q 867 60 899 81 q 803 25 836 40 q 619 -17 719 -17 q 433 71 492 -17 q 211 -17 315 -17 q 92 40 144 -17 q 40 214 40 96 q 118 508 40 400 q 310 615 196 615 m 393 240 q 429 490 393 361 q 381 503 399 503 q 321 419 344 503 q 297 233 297 336 q 342 131 297 131 q 403 153 365 131 q 393 240 393 192 m 647 328 q 715 381 686 339 q 743 474 743 422 q 714 526 743 526 q 663 455 679 526 q 647 328 647 383 z "},"รง":{"ha":589,"x_min":28,"x_max":611,"o":"m 392 522 q 318 446 349 522 q 288 292 288 369 q 386 121 288 121 q 528 181 449 121 l 572 119 q 311 -14 465 4 q 254 -132 254 -79 q 275 -157 254 -157 q 369 -125 315 -157 l 408 -182 q 317 -245 379 -215 q 205 -275 254 -275 q 125 -248 156 -275 q 94 -177 94 -221 q 129 -88 94 -133 q 208 -10 164 -43 q 77 72 126 7 q 28 249 28 136 q 127 513 28 410 q 388 615 226 615 q 551 573 492 615 q 611 466 611 531 q 572 354 611 401 q 473 372 526 354 q 388 415 419 389 l 408 519 q 392 522 400 522 z "},"รจ":{"ha":606,"x_min":28,"x_max":628,"o":"m 28 246 q 133 519 28 424 q 394 615 238 615 q 563 569 499 615 q 628 446 628 522 q 593 346 628 390 q 508 278 558 301 q 325 219 408 231 l 290 214 q 385 122 306 122 q 455 137 415 122 q 519 167 494 151 l 543 181 l 588 121 q 572 106 588 121 q 533 73 564 97 q 467 31 501 49 q 268 -17 378 -17 q 93 51 158 -17 q 28 246 28 119 m 406 482 q 381 514 406 514 q 318 459 347 514 q 285 306 289 404 q 365 372 325 311 q 406 482 406 432 m 254 967 q 614 760 318 967 l 578 693 q 149 819 375 765 q 254 967 199 967 z "},"รฉ":{"ha":607,"x_min":28,"x_max":629,"o":"m 28 246 q 133 519 28 424 q 394 615 238 615 q 563 569 499 615 q 628 446 628 522 q 593 346 628 390 q 508 278 558 301 q 325 219 408 231 l 290 214 q 385 122 306 122 q 455 137 415 122 q 519 167 494 151 l 543 181 l 588 121 q 572 106 588 121 q 533 73 564 97 q 467 31 501 49 q 268 -17 378 -17 q 93 51 158 -17 q 28 246 28 119 m 406 482 q 381 514 406 514 q 318 459 347 514 q 285 306 289 404 q 365 372 325 311 q 406 482 406 432 m 629 853 q 578 782 629 804 q 217 696 500 746 l 193 765 q 574 982 364 849 q 609 917 589 961 q 629 853 629 872 z "},"รช":{"ha":607,"x_min":28,"x_max":679,"o":"m 28 246 q 133 519 28 424 q 394 615 238 615 q 563 569 499 615 q 628 446 628 522 q 593 346 628 390 q 508 278 558 301 q 325 219 408 231 l 290 214 q 385 122 306 122 q 455 137 415 122 q 519 167 494 151 l 543 181 l 588 121 q 572 106 588 121 q 533 73 564 97 q 467 31 501 49 q 268 -17 378 -17 q 93 51 158 -17 q 28 246 28 119 m 406 482 q 381 514 406 514 q 318 459 347 514 q 285 306 289 404 q 365 372 325 311 q 406 482 406 432 m 119 761 q 316 906 201 835 q 477 978 431 978 q 586 894 524 978 q 679 749 649 811 l 621 699 q 428 810 496 781 q 164 696 319 778 l 119 761 z "},"รซ":{"ha":607,"x_min":28,"x_max":664,"o":"m 28 246 q 133 519 28 424 q 394 615 238 615 q 563 569 499 615 q 628 446 628 522 q 593 346 628 390 q 508 278 558 301 q 325 219 408 231 l 290 214 q 385 122 306 122 q 455 137 415 122 q 519 167 494 151 l 543 181 l 588 121 q 572 106 588 121 q 533 73 564 97 q 467 31 501 49 q 268 -17 378 -17 q 93 51 158 -17 q 28 246 28 119 m 406 482 q 381 514 406 514 q 318 459 347 514 q 285 306 289 404 q 365 372 325 311 q 406 482 406 432 m 249 736 q 223 736 249 736 q 168 764 197 736 q 139 835 139 792 q 175 909 139 879 q 263 939 211 939 q 342 915 314 939 q 371 846 371 890 q 335 769 371 801 q 249 736 300 736 m 542 736 q 516 736 542 736 q 461 764 490 736 q 432 835 432 792 q 468 909 432 879 q 556 939 504 939 q 635 915 607 939 q 664 846 664 890 q 628 769 664 801 q 542 736 593 736 z "},"รฌ":{"ha":417,"x_min":46,"x_max":486,"o":"m 160 965 q 249 929 188 965 q 357 858 310 893 q 486 758 404 822 l 450 692 q 54 824 192 792 q 160 965 103 965 m 374 522 q 374 491 374 522 q 339 331 374 460 q 304 164 304 203 q 319 125 304 125 q 375 139 335 125 l 388 144 l 413 75 q 295 11 365 39 q 168 -17 225 -17 q 78 15 111 -17 q 46 108 46 47 q 80 292 46 168 q 114 450 114 417 q 78 547 114 501 l 67 563 l 71 586 q 351 608 143 608 q 374 522 374 583 z "},"รญ":{"ha":417,"x_min":46,"x_max":496,"o":"m 496 856 q 444 786 496 808 q 300 742 406 769 q 108 700 194 714 l 85 769 q 440 978 272 867 q 476 915 456 956 q 496 856 496 874 m 374 522 q 374 491 374 522 q 339 331 374 460 q 304 164 304 203 q 319 125 304 125 q 375 139 335 125 l 388 144 l 413 75 q 295 11 365 39 q 168 -17 225 -17 q 78 15 111 -17 q 46 108 46 47 q 80 292 46 168 q 114 450 114 417 q 78 547 114 501 l 67 563 l 71 586 q 351 608 143 608 q 374 522 374 583 z "},"รฎ":{"ha":417,"x_min":6,"x_max":511,"o":"m 335 978 q 425 892 365 978 q 511 749 485 806 l 453 699 q 283 810 325 790 q 50 696 199 782 l 6 761 q 185 908 83 838 q 335 978 288 978 m 374 522 q 374 491 374 522 q 339 331 374 460 q 304 164 304 203 q 319 125 304 125 q 375 139 335 125 l 388 144 l 413 75 q 295 11 365 39 q 168 -17 225 -17 q 78 15 111 -17 q 46 108 46 47 q 80 292 46 168 q 114 450 114 417 q 78 547 114 501 l 67 563 l 71 586 q 351 608 143 608 q 374 522 374 583 z "},"รฏ":{"ha":417,"x_min":46,"x_max":521,"o":"m 153 736 q 129 736 153 736 q 79 764 106 736 q 53 835 53 792 q 86 909 53 879 q 166 939 119 939 q 238 915 213 939 q 264 846 264 890 q 232 769 264 801 q 153 736 200 736 m 409 736 q 386 736 409 736 q 336 764 363 736 q 310 835 310 792 q 343 909 310 879 q 423 939 376 939 q 495 915 469 939 q 521 846 521 890 q 488 769 521 801 q 409 736 456 736 m 374 522 q 374 491 374 522 q 339 331 374 460 q 304 164 304 203 q 319 125 304 125 q 375 139 335 125 l 388 144 l 413 75 q 295 11 365 39 q 168 -17 225 -17 q 78 15 111 -17 q 46 108 46 47 q 80 292 46 168 q 114 450 114 417 q 78 547 114 501 l 67 563 l 71 586 q 351 608 143 608 q 374 522 374 583 z "},"รฐ":{"ha":681,"x_min":26,"x_max":690,"o":"m 690 418 q 526 51 690 179 q 308 -17 439 -17 q 101 65 176 -17 q 26 272 26 146 q 117 507 26 399 q 351 615 208 615 q 410 610 383 615 q 372 743 396 688 l 210 694 q 189 736 199 706 q 179 789 179 767 l 328 832 q 210 964 283 903 l 247 1019 q 489 881 381 981 l 667 933 q 681 888 674 924 q 689 839 689 851 l 561 800 q 690 418 690 625 m 425 414 q 422 510 425 446 l 414 510 q 336 467 369 510 q 274 231 274 383 q 288 132 274 174 q 329 90 303 90 q 401 187 376 90 q 425 414 425 283 z "},"รฑ":{"ha":769,"x_min":49,"x_max":771,"o":"m 601 725 q 481 747 572 725 q 359 769 389 769 q 310 756 329 769 q 271 707 290 743 l 199 724 q 360 933 218 933 q 481 911 390 933 q 604 889 572 889 q 652 899 636 889 q 685 940 668 910 l 754 926 q 601 725 735 725 m 72 -8 l 49 -8 q 88 253 49 78 q 128 454 128 428 q 115 506 128 481 q 90 543 103 531 l 78 556 l 81 576 q 367 603 163 603 q 386 536 381 571 q 599 614 513 614 q 690 576 657 614 q 724 484 724 538 q 693 313 724 431 q 663 159 663 194 q 672 124 663 124 l 746 143 l 771 74 q 655 12 726 40 q 524 -17 583 -17 q 406 106 406 -17 q 435 278 406 158 q 464 427 464 397 q 444 457 464 457 q 378 429 419 457 q 350 308 372 404 q 306 18 306 107 q 72 -8 238 -8 z "},"รฒ":{"ha":619,"x_min":28,"x_max":760,"o":"m 283 967 q 643 760 347 967 l 607 693 q 178 819 404 765 q 283 967 228 967 m 261 -17 q 90 52 153 -17 q 28 246 28 121 q 118 505 28 399 q 356 611 208 611 l 418 606 q 481 615 451 615 q 580 568 550 615 q 614 433 610 521 q 725 451 672 436 l 744 457 q 758 399 754 447 l 760 383 q 607 333 697 351 q 486 85 576 186 q 261 -17 396 -17 m 289 251 q 354 122 289 122 q 448 181 400 122 q 514 322 496 239 q 372 458 372 322 q 376 507 372 482 q 356 503 363 507 q 310 402 332 478 q 289 251 289 326 z "},"รณ":{"ha":619,"x_min":28,"x_max":760,"o":"m 649 853 q 597 782 649 804 q 236 696 519 746 l 213 765 q 593 982 383 849 q 628 917 608 961 q 649 853 649 872 m 261 -17 q 90 52 153 -17 q 28 246 28 121 q 118 505 28 399 q 356 611 208 611 l 418 606 q 481 615 451 615 q 580 568 550 615 q 614 433 610 521 q 725 451 672 436 l 744 457 q 758 399 754 447 l 760 383 q 607 333 697 351 q 486 85 576 186 q 261 -17 396 -17 m 289 251 q 354 122 289 122 q 448 181 400 122 q 514 322 496 239 q 372 458 372 322 q 376 507 372 482 q 356 503 363 507 q 310 402 332 478 q 289 251 289 326 z "},"รด":{"ha":619,"x_min":28,"x_max":760,"o":"m 118 761 q 315 906 200 835 q 476 978 429 978 q 585 894 522 978 q 678 749 647 811 l 619 699 q 426 810 494 781 q 163 696 318 778 l 118 761 m 261 -17 q 90 52 153 -17 q 28 246 28 121 q 118 505 28 399 q 356 611 208 611 l 418 606 q 481 615 451 615 q 580 568 550 615 q 614 433 610 521 q 725 451 672 436 l 744 457 q 758 399 754 447 l 760 383 q 607 333 697 351 q 486 85 576 186 q 261 -17 396 -17 m 289 251 q 354 122 289 122 q 448 181 400 122 q 514 322 496 239 q 372 458 372 322 q 376 507 372 482 q 356 503 363 507 q 310 402 332 478 q 289 251 289 326 z "},"รต":{"ha":619,"x_min":28,"x_max":760,"o":"m 517 733 q 396 756 488 733 q 274 778 304 778 q 225 765 244 778 q 186 715 206 751 l 114 732 q 275 942 133 942 q 397 919 306 942 q 519 897 488 897 q 567 908 551 897 q 600 949 583 918 l 669 935 q 517 733 650 733 m 261 -17 q 90 52 153 -17 q 28 246 28 121 q 118 505 28 399 q 356 611 208 611 l 418 606 q 481 615 451 615 q 580 568 550 615 q 614 433 610 521 q 725 451 672 436 l 744 457 q 758 399 754 447 l 760 383 q 607 333 697 351 q 486 85 576 186 q 261 -17 396 -17 m 289 251 q 354 122 289 122 q 448 181 400 122 q 514 322 496 239 q 372 458 372 322 q 376 507 372 482 q 356 503 363 507 q 310 402 332 478 q 289 251 289 326 z "},"รถ":{"ha":619,"x_min":28,"x_max":760,"o":"m 247 736 q 222 736 247 736 q 167 764 196 736 q 138 835 138 792 q 174 909 138 879 q 261 939 210 939 q 341 915 313 939 q 369 846 369 890 q 334 769 369 801 q 247 736 299 736 m 540 736 q 515 736 540 736 q 460 764 489 736 q 431 835 431 792 q 467 909 431 879 q 554 939 503 939 q 634 915 606 939 q 663 846 663 890 q 627 769 663 801 q 540 736 592 736 m 261 -17 q 90 52 153 -17 q 28 246 28 121 q 118 505 28 399 q 356 611 208 611 l 418 606 q 481 615 451 615 q 580 568 550 615 q 614 433 610 521 q 725 451 672 436 l 744 457 q 758 399 754 447 l 760 383 q 607 333 697 351 q 486 85 576 186 q 261 -17 396 -17 m 289 251 q 354 122 289 122 q 448 181 400 122 q 514 322 496 239 q 372 458 372 322 q 376 507 372 482 q 356 503 363 507 q 310 402 332 478 q 289 251 289 326 z "},"รท":{"ha":758,"x_min":93,"x_max":676,"o":"m 93 322 q 106 450 93 406 l 676 450 q 668 322 676 350 l 93 322 m 355 38 q 333 38 355 38 q 288 62 311 38 q 264 126 264 86 q 296 195 264 167 q 372 224 328 224 q 440 200 417 224 q 463 138 463 176 q 431 68 463 99 q 355 38 399 38 m 378 543 q 357 543 378 543 q 311 567 335 543 q 288 632 288 592 q 319 701 288 672 q 396 729 351 729 q 463 706 440 729 q 486 643 486 682 q 454 574 486 604 q 378 543 422 543 z "},"รธ":{"ha":617,"x_min":28,"x_max":604,"o":"m 382 615 l 392 615 q 424 736 407 674 q 432 736 428 736 q 546 694 481 736 l 508 585 q 604 397 604 532 q 574 248 604 326 q 482 101 544 169 q 342 8 419 32 q 310 -114 318 -78 q 285 -114 304 -114 q 211 -100 265 -114 l 185 -90 l 215 1 q 78 81 129 17 q 28 247 28 144 q 122 507 28 399 q 382 615 215 615 m 371 532 q 273 410 308 507 q 238 240 238 314 q 261 140 238 167 q 371 532 307 283 m 375 142 q 460 256 428 176 q 493 393 493 335 q 476 488 493 451 q 375 142 424 328 z "},"รน":{"ha":753,"x_min":49,"x_max":760,"o":"m 332 967 q 692 760 396 967 l 656 693 q 226 819 453 765 q 332 967 276 967 m 49 113 q 85 304 49 171 q 122 468 122 438 q 72 557 122 499 l 75 578 q 371 606 201 606 q 382 531 382 582 q 344 336 382 479 q 306 167 306 193 q 340 131 306 131 q 400 149 364 131 q 425 265 404 171 q 474 579 474 475 q 692 607 538 607 l 729 607 q 692 363 729 544 q 655 153 656 181 q 667 125 654 125 l 735 143 l 760 74 q 643 13 719 42 q 508 -17 567 -17 q 401 53 422 -17 q 181 -17 286 -17 q 49 113 49 -17 z "},"รบ":{"ha":753,"x_min":49,"x_max":760,"o":"m 717 853 q 665 782 717 804 q 304 696 588 746 l 281 765 q 661 982 451 849 q 697 917 676 961 q 717 853 717 872 m 49 113 q 85 304 49 171 q 122 468 122 438 q 72 557 122 499 l 75 578 q 371 606 201 606 q 382 531 382 582 q 344 336 382 479 q 306 167 306 193 q 340 131 306 131 q 400 149 364 131 q 425 265 404 171 q 474 579 474 475 q 692 607 538 607 l 729 607 q 692 363 729 544 q 655 153 656 181 q 667 125 654 125 l 735 143 l 760 74 q 643 13 719 42 q 508 -17 567 -17 q 401 53 422 -17 q 181 -17 286 -17 q 49 113 49 -17 z "},"รป":{"ha":753,"x_min":49,"x_max":760,"o":"m 186 761 q 383 906 268 835 q 544 978 497 978 q 653 894 590 978 q 746 749 715 811 l 688 699 q 494 810 563 781 q 231 696 386 778 l 186 761 m 49 113 q 85 304 49 171 q 122 468 122 438 q 72 557 122 499 l 75 578 q 371 606 201 606 q 382 531 382 582 q 344 336 382 479 q 306 167 306 193 q 340 131 306 131 q 400 149 364 131 q 425 265 404 171 q 474 579 474 475 q 692 607 538 607 l 729 607 q 692 363 729 544 q 655 153 656 181 q 667 125 654 125 l 735 143 l 760 74 q 643 13 719 42 q 508 -17 567 -17 q 401 53 422 -17 q 181 -17 286 -17 q 49 113 49 -17 z "},"รผ":{"ha":753,"x_min":49,"x_max":760,"o":"m 621 736 q 595 736 621 736 q 540 764 569 736 q 511 835 511 792 q 547 909 511 879 q 635 939 583 939 q 715 915 686 939 q 743 846 743 890 q 708 769 743 801 q 621 736 672 736 m 328 736 q 302 736 328 736 q 247 764 276 736 q 218 835 218 792 q 254 909 218 879 q 342 939 290 939 q 422 915 393 939 q 450 846 450 890 q 415 769 450 801 q 328 736 379 736 m 49 113 q 85 304 49 171 q 122 468 122 438 q 72 557 122 499 l 75 578 q 371 606 201 606 q 382 531 382 582 q 344 336 382 479 q 306 167 306 193 q 340 131 306 131 q 400 149 364 131 q 425 265 404 171 q 474 579 474 475 q 692 607 538 607 l 729 607 q 692 363 729 544 q 655 153 656 181 q 667 125 654 125 l 735 143 l 760 74 q 643 13 719 42 q 508 -17 567 -17 q 401 53 422 -17 q 181 -17 286 -17 q 49 113 49 -17 z "},"รฝ":{"ha":701,"x_min":43,"x_max":704,"o":"m 679 853 q 628 782 679 804 q 267 696 550 746 l 243 765 q 624 982 414 849 q 659 917 639 961 q 679 853 679 872 m 693 606 l 704 606 q 681 450 697 569 q 597 27 643 178 q 468 -217 551 -124 q 246 -311 385 -311 q 142 -281 186 -311 q 99 -204 99 -251 q 122 -125 99 -157 q 189 -72 144 -93 q 368 -12 258 -37 q 382 56 379 40 q 174 -3 274 -3 q 75 33 107 -3 q 43 121 43 68 q 74 308 43 174 q 104 493 104 442 q 97 569 104 544 q 351 604 261 604 q 363 536 363 585 q 331 347 363 488 q 300 181 300 206 q 342 138 300 138 q 396 150 365 138 q 427 366 407 221 q 456 565 447 511 q 565 594 492 582 q 693 606 638 606 m 197 -176 q 230 -208 200 -208 q 294 -179 260 -208 q 349 -96 328 -150 q 197 -176 197 -122 z "},"รพ":{"ha":671,"x_min":-37,"x_max":661,"o":"m -37 -247 q 58 321 -37 -144 q 154 919 154 786 q 147 976 154 942 q 406 1019 285 1019 q 413 968 413 1000 q 354 582 413 853 q 488 614 418 614 q 609 555 557 614 q 661 385 661 496 q 588 97 661 210 q 374 -17 514 -17 q 238 8 301 -17 q 215 -269 215 -143 q -29 -311 111 -304 q -37 -247 -37 -294 m 301 104 q 364 158 338 104 q 411 397 411 256 q 371 478 411 478 q 329 469 354 478 q 254 113 268 186 q 301 104 285 104 z "},"รฟ":{"ha":701,"x_min":43,"x_max":704,"o":"m 582 736 q 556 736 582 736 q 501 764 531 736 q 472 835 472 792 q 508 909 472 879 q 596 939 544 939 q 676 915 647 939 q 704 846 704 890 q 669 769 704 801 q 582 736 633 736 m 289 736 q 263 736 289 736 q 208 764 238 736 q 179 835 179 792 q 215 909 179 879 q 303 939 251 939 q 383 915 354 939 q 411 846 411 890 q 376 769 411 801 q 289 736 340 736 m 693 606 l 704 606 q 681 450 697 569 q 597 27 643 178 q 468 -217 551 -124 q 246 -311 385 -311 q 142 -281 186 -311 q 99 -204 99 -251 q 122 -125 99 -157 q 189 -72 144 -93 q 368 -12 258 -37 q 382 56 379 40 q 174 -3 274 -3 q 75 33 107 -3 q 43 121 43 68 q 74 308 43 174 q 104 493 104 442 q 97 569 104 544 q 351 604 261 604 q 363 536 363 585 q 331 347 363 488 q 300 181 300 206 q 342 138 300 138 q 396 150 365 138 q 427 366 407 221 q 456 565 447 511 q 565 594 492 582 q 693 606 638 606 m 197 -176 q 230 -208 200 -208 q 294 -179 260 -208 q 349 -96 328 -150 q 197 -176 197 -122 z "},"ฤง":{"ha":763,"x_min":42,"x_max":764,"o":"m 454 1019 q 464 948 464 996 q 453 833 464 900 l 624 833 q 617 729 624 764 l 435 729 q 393 546 413 625 q 581 614 513 614 q 683 577 650 614 q 717 485 717 540 q 686 313 717 431 q 656 160 656 196 q 667 124 656 124 l 739 143 l 764 74 q 645 13 721 42 q 511 -17 569 -17 q 399 111 399 -17 q 428 283 399 169 q 457 427 457 397 q 436 457 457 457 q 365 429 407 457 q 303 60 303 164 l 304 26 q 50 -11 163 -11 q 42 44 42 -7 q 67 211 42 94 q 130 484 92 328 q 185 729 168 640 l 60 729 q 67 833 60 803 l 201 833 q 207 924 207 894 q 201 982 207 954 q 454 1019 336 1019 z "},"ฤจ":{"ha":643,"x_min":10,"x_max":671,"o":"m 422 968 q 581 890 536 968 q 625 680 625 811 q 598 424 625 549 q 520 192 571 299 q 388 17 469 85 q 210 -51 306 -51 q 63 3 115 -51 q 10 146 10 58 q 96 333 10 233 q 356 499 182 432 q 369 669 369 582 q 357 788 369 756 q 307 819 344 819 q 133 738 249 819 l 81 810 q 422 968 258 968 m 117 158 q 134 107 117 129 q 179 85 151 85 q 275 169 231 85 q 343 388 319 254 q 178 282 240 350 q 117 158 117 214 m 518 1104 q 397 1126 489 1104 q 276 1149 306 1149 q 226 1135 246 1149 q 188 1086 207 1122 l 115 1103 q 276 1313 135 1313 q 398 1290 307 1313 q 521 1268 489 1268 q 569 1278 553 1268 q 601 1319 585 1289 l 671 1306 q 518 1104 651 1104 z "},"ฤฉ":{"ha":417,"x_min":32,"x_max":507,"o":"m 376 736 q 277 757 351 736 q 177 778 203 778 q 134 765 151 778 q 100 715 117 751 l 32 732 q 176 939 50 939 q 274 918 203 939 q 382 897 346 897 q 442 949 418 897 l 507 935 q 376 736 492 736 m 374 522 q 374 491 374 522 q 339 331 374 460 q 304 164 304 203 q 319 125 304 125 q 375 139 335 125 l 388 144 l 413 75 q 295 11 365 39 q 168 -17 225 -17 q 78 15 111 -17 q 46 108 46 47 q 80 292 46 168 q 114 450 114 417 q 78 547 114 501 l 67 563 l 71 586 q 351 608 143 608 q 374 522 374 583 z "},"ฤฑ":{"ha":417,"x_min":46,"x_max":413,"o":"m 374 522 q 374 491 374 522 q 339 331 374 460 q 304 164 304 203 q 319 125 304 125 q 375 139 335 125 l 388 144 l 413 75 q 295 11 365 39 q 168 -17 225 -17 q 78 15 111 -17 q 46 108 46 47 q 80 292 46 168 q 114 450 114 417 q 78 547 114 501 l 67 563 l 71 586 q 351 608 143 608 q 374 522 374 583 z "},"ฤฒ":{"ha":1213,"x_min":10,"x_max":1331,"o":"m 853 296 q 885 478 865 342 q 904 688 904 615 q 890 790 904 761 q 842 818 876 818 q 667 738 776 818 l 613 810 q 963 968 793 968 q 1113 894 1067 968 q 1160 654 1160 819 q 1136 356 1160 489 q 1326 364 1228 364 q 1331 315 1331 347 q 1303 224 1331 283 q 1201 233 1246 233 q 1110 231 1157 233 q 938 -124 1050 11 q 693 -258 826 -258 q 553 -205 607 -258 q 500 -61 500 -151 q 586 127 500 29 q 853 296 672 225 m 422 968 q 581 890 536 968 q 625 680 625 811 q 598 424 625 549 q 520 192 571 299 q 388 17 469 85 q 210 -51 306 -51 q 63 3 115 -51 q 10 146 10 58 q 96 333 10 233 q 356 499 182 432 q 369 669 369 582 q 357 788 369 756 q 307 819 344 819 q 133 738 249 819 l 81 810 q 422 968 258 968 m 607 -50 q 625 -103 607 -83 q 668 -122 643 -122 q 767 -37 721 -122 q 836 182 813 49 q 670 79 733 146 q 607 -50 607 13 m 117 158 q 134 107 117 129 q 179 85 151 85 q 275 169 231 85 q 343 388 319 254 q 178 282 240 350 q 117 158 117 214 z "},"ฤณ":{"ha":824,"x_min":46,"x_max":849,"o":"m 436 -311 q 186 -186 293 -311 l 231 -126 q 346 -171 296 -171 q 425 -103 396 -171 q 493 165 454 -35 q 532 453 532 364 q 518 501 532 474 q 490 544 504 528 l 476 561 l 479 583 q 776 608 585 608 q 800 519 800 585 q 766 266 800 453 q 699 -50 732 79 q 599 -246 669 -181 q 436 -311 528 -311 m 701 717 q 669 717 701 717 q 602 750 638 717 q 567 835 567 783 q 610 923 567 888 q 717 958 654 958 q 814 929 779 958 q 849 847 849 900 q 806 756 849 794 q 701 717 764 717 m 269 717 q 237 717 269 717 q 170 750 206 717 q 135 835 135 783 q 178 923 135 888 q 285 958 222 958 q 382 929 347 958 q 417 847 417 900 q 374 756 417 794 q 269 717 332 717 m 374 522 q 374 491 374 522 q 339 331 374 460 q 304 164 304 203 q 319 125 304 125 q 375 139 335 125 l 388 144 l 413 75 q 295 11 365 39 q 168 -17 225 -17 q 78 15 111 -17 q 46 108 46 47 q 80 292 46 168 q 114 450 114 417 q 78 547 114 501 l 67 563 l 71 586 q 351 608 143 608 q 374 522 374 583 z "},"ฤด":{"ha":603,"x_min":-110,"x_max":721,"o":"m 243 296 q 275 478 256 342 q 294 688 294 615 q 281 790 294 761 q 232 818 267 818 q 57 738 167 818 l 3 810 q 353 968 183 968 q 503 894 457 968 q 550 654 550 819 q 526 356 550 489 q 717 364 618 364 q 721 315 721 347 q 693 224 721 283 q 592 233 636 233 q 500 231 547 233 q 328 -124 440 11 q 83 -258 217 -258 q -56 -205 -3 -258 q -110 -61 -110 -151 q -24 127 -110 29 q 243 296 63 225 m 33 1132 q 230 1277 115 1206 q 391 1349 344 1349 q 500 1265 438 1349 q 593 1119 563 1182 l 535 1069 q 342 1181 410 1151 q 78 1067 233 1149 l 33 1132 m -3 -50 q 15 -103 -3 -83 q 58 -122 33 -122 q 157 -37 111 -122 q 226 182 203 49 q 60 79 124 146 q -3 -50 -3 13 z "},"ฤต":{"ha":421,"x_min":-221,"x_max":506,"o":"m 329 978 q 419 892 360 978 q 506 749 479 806 l 447 699 q 278 810 319 790 q 44 696 193 782 l 0 761 q 180 908 78 838 q 329 978 282 978 m 15 -311 q -221 -200 -112 -311 l -176 -140 q -69 -178 -118 -178 q 16 -114 -19 -178 q 88 153 51 -50 q 124 453 124 356 q 110 501 124 474 q 82 544 96 528 l 68 561 l 71 583 q 360 608 168 608 q 383 516 383 585 q 358 288 383 447 q 303 10 333 128 q 15 -311 218 -311 z "},"ฤท":{"ha":747,"x_min":35,"x_max":769,"o":"m 199 918 q 192 982 199 954 q 442 1019 329 1019 q 456 946 456 1003 q 393 557 456 844 q 590 615 504 615 q 720 581 675 615 q 765 483 765 546 q 586 311 765 363 q 672 119 631 119 l 739 138 l 769 69 q 663 13 735 42 q 524 -17 590 -17 q 422 33 457 -17 q 378 164 388 83 q 368 344 368 244 q 474 392 435 361 q 513 455 513 424 q 479 486 513 486 q 417 471 453 486 q 365 442 382 456 q 290 18 290 125 q 36 -6 183 -6 q 35 21 35 6 q 117 444 35 93 q 199 918 199 794 m 469 -151 q 338 -386 469 -251 l 267 -353 q 301 -240 296 -290 l 214 -164 q 263 -85 231 -122 q 325 -43 294 -49 q 426 -74 382 -43 q 469 -151 469 -104 z "},"ฤธ":{"ha":763,"x_min":49,"x_max":785,"o":"m 383 344 q 489 392 450 361 q 528 455 528 424 q 494 486 528 486 q 433 471 468 486 q 381 442 397 456 q 353 318 375 415 q 306 18 306 111 q 72 -8 238 -8 l 49 -8 q 88 253 49 78 q 128 454 128 428 q 115 506 128 481 q 90 543 103 531 l 78 556 l 81 576 q 367 603 163 603 q 385 543 379 575 l 406 556 q 602 615 514 615 q 735 581 690 615 q 781 483 781 546 q 601 311 781 363 q 688 119 646 119 l 754 138 l 785 69 q 678 13 750 42 q 539 -17 606 -17 q 438 33 472 -17 q 393 164 403 83 q 383 344 383 244 z "},"ฤฟ":{"ha":703,"x_min":-36,"x_max":856,"o":"m 303 33 q 138 -28 221 -28 q 10 13 56 -28 q -36 108 -36 54 q -3 198 -36 161 q 83 244 31 235 q 151 256 117 256 q 219 247 185 256 q 243 424 233 314 q 121 492 168 444 q 50 660 50 551 l 58 735 q 111 736 72 736 q 186 718 150 736 q 185 714 185 715 l 196 710 q 188 633 188 672 q 206 561 188 594 q 251 538 222 542 q 261 694 257 651 q 363 913 276 842 q 578 986 450 983 l 597 986 q 765 927 703 985 q 828 785 828 869 q 722 575 828 681 q 464 428 617 469 q 399 164 424 242 q 477 108 428 144 q 556 51 526 72 q 713 -17 654 -17 q 810 -6 771 -17 l 814 -11 l 815 -11 q 856 -72 844 -46 l 851 -79 l 856 -90 q 774 -188 829 -146 q 649 -231 718 -231 q 513 -178 579 -231 q 363 -35 446 -126 l 303 33 m 647 160 q 623 160 647 160 q 573 190 600 160 q 546 267 546 219 q 583 351 546 315 q 669 386 619 386 q 744 357 718 386 q 769 281 769 328 q 731 197 769 235 q 647 160 693 160 m 631 856 l 625 856 q 518 667 558 856 q 492 554 511 644 q 633 650 585 586 q 681 779 681 714 q 667 833 681 811 q 631 856 654 854 m 126 171 l 118 169 q 90 129 90 158 q 110 92 90 100 q 188 147 149 92 q 126 171 156 171 z "},"ล":{"ha":589,"x_min":35,"x_max":624,"o":"m 508 408 q 484 408 508 408 q 434 436 460 408 q 408 508 408 464 q 443 584 408 553 q 526 615 478 615 q 599 589 574 615 q 624 519 624 563 q 590 442 624 475 q 508 408 556 408 m 417 78 q 300 11 372 39 q 169 -17 228 -17 q 72 17 110 -17 q 35 115 35 51 q 105 472 35 179 q 175 906 175 764 q 167 983 175 936 q 419 1019 297 1019 q 432 947 432 997 q 362 535 432 853 q 292 169 292 218 q 308 121 292 121 q 368 139 322 121 l 383 146 l 417 78 z "},"ล":{"ha":703,"x_min":-36,"x_max":856,"o":"m 537 49 q 561 35 537 49 q 630 2 585 21 q 723 -17 675 -17 q 810 -6 771 -17 q 856 -90 840 -49 q 774 -188 829 -146 q 649 -231 718 -231 q 513 -178 579 -231 q 363 -35 446 -126 l 303 33 q 140 -28 225 -28 q 10 13 56 -28 q -36 111 -36 54 q 8 208 -36 168 q 109 249 53 249 q 215 233 165 249 q 225 283 219 250 q 115 267 175 278 l 110 338 q 236 360 199 354 l 244 432 q 50 660 50 476 l 58 735 q 111 736 72 736 q 186 718 150 736 q 178 660 178 681 q 251 538 178 550 q 261 694 257 651 q 366 915 276 844 q 574 986 456 986 q 756 928 693 986 q 818 776 818 871 q 713 576 818 681 q 454 431 608 472 l 442 376 q 525 378 465 378 q 626 369 585 378 q 631 344 631 357 q 610 276 631 315 q 446 293 550 293 l 421 293 q 382 151 401 215 q 537 49 489 78 m 681 779 q 666 835 681 814 q 626 856 651 856 q 551 806 579 856 q 500 650 524 757 l 479 550 q 629 647 578 581 q 681 779 681 713 m 188 147 q 129 171 156 171 q 89 157 103 171 q 75 128 75 143 q 112 92 75 92 q 188 147 149 92 z "},"ล":{"ha":524,"x_min":-1,"x_max":585,"o":"m 422 639 l 546 689 q 570 640 557 672 q 585 592 583 607 q 537 574 564 583 q 470 549 510 564 q 399 524 431 535 q 331 171 331 221 q 347 121 331 121 q 407 139 361 121 l 422 146 l 456 78 q 339 11 411 39 q 208 -17 267 -17 q 111 17 149 -17 q 74 115 74 51 q 136 440 74 179 l 40 399 q -1 499 11 439 q 78 529 19 507 l 165 563 q 214 906 214 782 q 206 983 214 936 q 458 1019 336 1019 q 471 931 471 997 q 422 639 471 864 z "},"ล":{"ha":1135,"x_min":24,"x_max":1110,"o":"m 443 968 q 611 843 574 968 q 706 910 674 889 q 805 958 738 931 q 942 986 872 986 q 1061 942 1013 986 q 1110 818 1110 899 q 1050 499 1110 738 q 990 169 990 261 q 1011 129 990 129 q 1076 146 1035 129 l 1106 75 q 854 -17 978 -17 q 753 19 789 -17 q 718 125 718 56 q 776 431 718 194 q 833 735 833 668 q 782 803 833 803 q 628 733 731 803 q 631 674 631 694 q 576 307 631 474 q 425 44 521 140 q 214 -51 329 -51 q 76 4 128 -51 q 24 164 24 60 q 114 410 24 268 q 374 699 204 551 q 362 794 374 768 q 325 821 350 821 q 146 735 265 821 l 90 804 q 253 917 156 867 q 443 968 351 968 m 132 169 q 149 108 132 132 q 192 85 165 85 q 312 222 258 85 q 375 568 365 358 q 203 366 274 482 q 132 169 132 250 m 1019 1224 q 968 1153 1019 1175 q 607 1067 890 1117 l 583 1136 q 964 1353 754 1219 q 999 1288 979 1332 q 1019 1224 1019 1243 z "},"ล":{"ha":769,"x_min":49,"x_max":771,"o":"m 699 853 q 647 782 699 804 q 286 696 569 746 l 263 765 q 643 982 433 849 q 678 917 658 961 q 699 853 699 872 m 72 -8 l 49 -8 q 88 253 49 78 q 128 454 128 428 q 115 506 128 481 q 90 543 103 531 l 78 556 l 81 576 q 367 603 163 603 q 386 536 381 571 q 599 614 513 614 q 690 576 657 614 q 724 484 724 538 q 693 313 724 431 q 663 159 663 194 q 672 124 663 124 l 746 143 l 771 74 q 655 12 726 40 q 524 -17 583 -17 q 406 106 406 -17 q 435 278 406 158 q 464 427 464 397 q 444 457 464 457 q 378 429 419 457 q 350 308 372 404 q 306 18 306 107 q 72 -8 238 -8 z "},"ล":{"ha":1231,"x_min":44,"x_max":1449,"o":"m 1260 944 q 1174 932 1214 944 q 1236 808 1236 883 q 1194 675 1236 733 q 1089 617 1151 617 q 989 656 1026 617 q 951 758 951 694 q 982 875 951 821 q 881 679 881 839 q 903 547 881 606 q 979 553 956 553 q 1110 524 1064 553 q 1157 447 1157 496 q 1120 363 1157 399 q 1008 328 1083 328 q 840 382 932 328 q 790 261 790 319 q 826 168 790 203 q 922 133 861 133 q 1053 177 982 133 q 1174 276 1125 221 l 1233 226 q 831 -17 1057 -15 q 597 54 686 -17 q 394 -17 507 -17 q 140 90 235 -17 q 44 367 44 196 q 133 703 44 543 q 383 950 233 881 q 558 988 465 988 q 763 918 681 988 q 992 986 857 986 q 1079 976 1031 986 q 1287 1038 1172 1038 q 1449 981 1401 1038 q 1418 900 1446 932 l 1408 889 q 1260 944 1357 944 m 715 493 q 647 683 647 586 q 688 840 647 779 q 583 883 647 883 q 465 822 519 883 q 381 667 411 760 q 318 299 318 476 q 432 88 318 88 q 536 133 490 88 q 517 228 517 175 q 715 493 517 400 m 1126 783 q 1081 871 1126 847 q 1050 768 1050 829 q 1082 707 1050 707 q 1114 728 1101 707 q 1126 783 1126 750 m 1051 440 q 1037 463 1051 454 q 998 472 1022 472 q 944 460 974 472 q 1014 415 976 415 q 1051 440 1051 415 z "},"ล":{"ha":1047,"x_min":28,"x_max":1069,"o":"m 349 615 q 454 594 413 615 q 507 599 471 599 q 568 567 543 599 q 594 496 593 535 q 874 615 707 615 q 1014 580 958 615 q 1069 472 1069 544 q 1037 377 1069 419 q 958 313 1004 335 q 786 257 861 267 l 753 253 q 779 153 753 190 q 860 115 806 115 q 926 128 892 115 q 978 154 960 142 l 996 167 l 1038 101 q 996 68 1022 88 q 892 16 969 49 q 735 -17 815 -17 q 598 26 654 -17 q 522 131 542 68 q 261 -17 411 -17 q 93 50 158 -17 q 28 254 28 117 q 117 503 28 392 q 349 615 206 615 m 357 122 q 434 165 394 122 q 496 267 474 207 q 369 428 369 279 q 375 501 369 471 q 354 504 369 504 q 333 472 347 500 q 303 386 318 444 q 289 264 289 328 q 357 122 289 122 m 754 340 q 838 391 804 353 q 871 478 871 429 q 834 526 871 526 q 776 467 797 526 q 754 340 754 407 z "},"ล":{"ha":935,"x_min":-62,"x_max":1018,"o":"m 449 478 q 452 486 449 478 q 474 506 454 494 q 522 517 493 517 q 574 506 551 517 q 674 724 674 583 q 621 853 674 813 q 457 894 568 894 q 167 841 285 894 q 49 710 49 788 q 76 658 49 678 q 132 633 103 639 q 133 603 133 621 q 108 492 133 528 q -10 549 43 500 q -62 689 -62 597 q 98 918 -62 833 q 507 1003 258 1003 q 821 933 706 1003 q 936 731 936 864 q 863 561 936 636 q 688 438 790 486 q 826 168 738 389 q 965 -53 915 -53 q 992 -47 975 -53 l 1018 -121 q 834 -176 936 -176 q 687 -132 732 -176 q 610 51 642 -87 q 592 139 604 75 q 540 354 560 290 l 517 354 q 456 383 481 354 q 444 427 444 392 q 449 478 444 463 m 210 676 q 203 715 210 703 q 176 751 197 728 l 176 768 q 267 798 204 785 q 376 811 329 811 q 478 804 453 811 q 486 747 486 790 q 415 428 486 704 q 331 15 343 153 q 106 -8 231 -8 q 60 -4 72 -8 q 138 339 67 82 q 210 676 210 596 m 738 1224 q 686 1153 738 1175 q 325 1067 608 1117 l 301 1136 q 682 1353 472 1219 q 717 1288 697 1332 q 738 1224 738 1243 z "},"ล":{"ha":935,"x_min":-62,"x_max":1018,"o":"m 449 478 q 452 486 449 478 q 474 506 454 494 q 522 517 493 517 q 574 506 551 517 q 674 724 674 583 q 621 853 674 813 q 457 894 568 894 q 167 841 285 894 q 49 710 49 788 q 76 658 49 678 q 132 633 103 639 q 133 603 133 621 q 108 492 133 528 q -10 549 43 500 q -62 689 -62 597 q 98 918 -62 833 q 507 1003 258 1003 q 821 933 706 1003 q 936 731 936 864 q 863 561 936 636 q 688 438 790 486 q 826 168 738 389 q 965 -53 915 -53 q 992 -47 975 -53 l 1018 -121 q 834 -176 936 -176 q 687 -132 732 -176 q 610 51 642 -87 q 592 139 604 75 q 540 354 560 290 l 517 354 q 456 383 481 354 q 444 427 444 392 q 449 478 444 463 m 210 676 q 203 715 210 703 q 176 751 197 728 l 176 768 q 267 798 204 785 q 376 811 329 811 q 478 804 453 811 q 486 747 486 790 q 415 428 486 704 q 331 15 343 153 q 106 -8 231 -8 q 60 -4 72 -8 q 138 339 67 82 q 210 676 210 596 m 568 -144 q 428 -385 568 -261 l 357 -350 q 392 -233 385 -289 l 304 -157 q 355 -74 321 -114 q 418 -28 389 -33 q 521 -62 474 -28 q 568 -144 568 -97 z "},"ล":{"ha":544,"x_min":40,"x_max":621,"o":"m 68 -8 l 57 -8 q 53 52 53 11 q 87 264 53 93 q 121 458 121 435 q 83 542 121 503 l 71 556 l 74 576 q 350 603 157 603 q 372 521 368 568 q 518 615 456 615 q 592 583 567 615 q 621 475 617 550 q 601 451 614 465 q 545 410 588 436 q 457 379 503 385 q 438 410 456 379 q 411 440 421 440 q 365 413 401 440 l 350 333 q 310 67 310 135 l 311 15 q 68 -8 250 -8 m 296 -151 q 164 -386 296 -251 l 93 -353 q 128 -240 122 -290 l 40 -164 q 89 -85 57 -122 q 151 -43 121 -49 q 252 -74 208 -43 q 296 -151 296 -104 z "},"ล":{"ha":935,"x_min":-62,"x_max":1018,"o":"m 449 478 q 452 486 449 478 q 474 506 454 494 q 522 517 493 517 q 574 506 551 517 q 674 724 674 583 q 621 853 674 813 q 457 894 568 894 q 167 841 285 894 q 49 710 49 788 q 76 658 49 678 q 132 633 103 639 q 133 603 133 621 q 108 492 133 528 q -10 549 43 500 q -62 689 -62 597 q 98 918 -62 833 q 507 1003 258 1003 q 821 933 706 1003 q 936 731 936 864 q 863 561 936 636 q 688 438 790 486 q 826 168 738 389 q 965 -53 915 -53 q 992 -47 975 -53 l 1018 -121 q 834 -176 936 -176 q 687 -132 732 -176 q 610 51 642 -87 q 592 139 604 75 q 540 354 560 290 l 517 354 q 456 383 481 354 q 444 427 444 392 q 449 478 444 463 m 210 676 q 203 715 210 703 q 176 751 197 728 l 176 768 q 267 798 204 785 q 376 811 329 811 q 478 804 453 811 q 486 747 486 790 q 415 428 486 704 q 331 15 343 153 q 106 -8 231 -8 q 60 -4 72 -8 q 138 339 67 82 q 210 676 210 596 m 838 1275 q 640 1142 764 1211 q 476 1074 515 1074 q 369 1153 438 1074 q 271 1285 301 1233 l 339 1350 q 522 1244 447 1275 q 786 1353 674 1293 l 838 1275 z "},"ล":{"ha":544,"x_min":53,"x_max":621,"o":"m 68 -8 l 57 -8 q 53 52 53 11 q 87 264 53 93 q 121 458 121 435 q 83 542 121 503 l 71 556 l 74 576 q 350 603 157 603 q 372 521 368 568 q 518 615 456 615 q 592 583 567 615 q 621 475 617 550 q 601 451 614 465 q 545 410 588 436 q 457 379 503 385 q 438 410 456 379 q 411 440 421 440 q 365 413 401 440 l 350 333 q 310 67 310 135 l 311 15 q 68 -8 250 -8 m 278 700 q 122 932 239 700 l 169 975 q 192 956 175 971 q 215 935 208 940 q 235 917 221 929 q 257 899 249 904 q 278 885 265 893 q 319 860 304 865 q 540 981 407 888 l 579 925 q 414 778 517 856 q 278 700 311 700 z "},"ศท":{"ha":414,"x_min":-197,"x_max":383,"o":"m 18 -311 q -197 -214 -103 -311 l -160 -154 q -67 -181 -115 -181 q 17 -116 -18 -181 q 88 152 51 -51 q 124 453 124 356 q 110 501 124 474 q 82 544 96 528 l 68 561 l 71 583 q 363 608 171 608 q 383 516 383 585 q 358 288 383 447 q 303 10 333 128 q 18 -311 218 -311 z "},"ห":{"ha":810,"x_min":124,"x_max":683,"o":"m 124 761 q 320 906 206 835 q 481 978 435 978 q 590 894 528 978 q 683 749 653 811 l 625 699 q 432 810 500 781 q 168 696 324 778 l 124 761 z "},"ห":{"ha":869,"x_min":168,"x_max":735,"o":"m 735 904 q 537 772 661 840 q 374 703 413 703 q 267 783 335 703 q 168 914 199 863 l 236 979 q 419 874 344 904 q 683 982 571 922 l 735 904 z "},"ห":{"ha":636,"x_min":168,"x_max":501,"o":"m 335 717 q 294 717 335 717 q 211 760 254 717 q 168 872 168 804 q 211 981 168 939 q 335 1024 254 1024 q 458 981 415 1024 q 501 872 501 939 q 458 760 501 804 q 335 717 415 717 m 289 914 q 281 906 289 914 q 272 871 272 897 q 289 828 272 844 q 335 811 306 811 q 392 871 392 811 q 335 931 392 931 q 289 914 306 931 z "},"ห":{"ha":840,"x_min":139,"x_max":694,"o":"m 542 733 q 421 756 513 733 q 299 778 329 778 q 250 765 269 778 q 211 715 231 751 l 139 732 q 300 942 158 942 q 422 919 331 942 q 544 897 513 897 q 592 908 576 897 q 625 949 608 918 l 694 935 q 542 733 675 733 z "},"ฬ":{"ha":539,"x_min":168,"x_max":404,"o":"m 277 1011 q 251 1011 277 1011 q 197 1039 225 1011 q 168 1113 168 1067 q 206 1192 168 1160 q 297 1225 244 1225 q 376 1198 349 1225 q 404 1124 404 1171 q 367 1044 404 1078 q 277 1011 329 1011 z "},"โ":{"ha":810,"x_min":71,"x_max":754,"o":"m 71 332 q 75 460 71 411 l 754 460 q 750 332 754 419 l 71 332 z "},"โ":{"ha":1367,"x_min":85,"x_max":1311,"o":"m 85 332 q 89 460 85 385 l 1311 460 q 1307 332 1311 390 l 85 332 z "},"โ":{"ha":418,"x_min":125,"x_max":389,"o":"m 125 719 q 181 878 125 782 q 282 1021 236 975 l 357 981 q 289 818 303 896 l 389 749 q 361 647 389 696 q 289 565 333 597 q 125 719 125 592 z "},"โ":{"ha":424,"x_min":140,"x_max":404,"o":"m 404 867 q 349 708 404 804 q 247 565 293 611 l 172 606 q 240 768 226 690 l 140 838 q 168 940 140 890 q 240 1021 196 989 q 404 867 404 994 z "},"โ":{"ha":426,"x_min":89,"x_max":353,"o":"m 353 63 q 297 -97 353 0 q 196 -239 242 -193 l 121 -199 q 189 -36 175 -114 l 89 33 q 117 135 89 86 q 189 217 144 185 q 353 63 353 190 z "},"โ":{"ha":715,"x_min":125,"x_max":686,"o":"m 422 719 q 478 878 422 782 q 579 1021 533 975 l 654 981 q 583 818 596 890 l 686 749 q 658 647 686 696 q 586 565 631 597 q 422 719 422 592 m 125 719 q 181 878 125 782 q 282 1021 236 975 l 357 981 q 286 818 299 890 l 389 749 q 361 647 389 696 q 289 565 333 597 q 125 719 125 592 z "},"โ":{"ha":721,"x_min":140,"x_max":701,"o":"m 404 867 q 349 708 404 804 q 247 565 293 611 l 172 606 q 240 768 226 690 l 140 838 q 168 940 140 890 q 240 1021 196 989 q 404 867 404 994 m 701 867 q 646 708 701 804 q 544 565 590 611 l 469 606 q 538 768 524 690 l 438 838 q 465 940 438 890 q 538 1021 493 989 q 701 867 701 994 z "},"โ":{"ha":722,"x_min":89,"x_max":650,"o":"m 353 68 q 297 -91 353 6 q 196 -233 242 -187 l 121 -193 q 189 -31 175 -108 l 89 39 q 117 141 89 92 q 189 222 144 190 q 353 68 353 196 m 650 68 q 594 -91 650 6 q 493 -233 539 -187 l 418 -193 q 486 -31 472 -108 l 386 39 q 414 141 386 92 q 486 222 442 190 q 650 68 650 196 z "},"โข":{"ha":628,"x_min":135,"x_max":526,"o":"m 323 254 q 280 254 323 254 q 186 308 238 254 q 135 447 135 363 q 193 589 135 532 q 338 646 251 646 q 476 594 425 646 q 526 459 526 542 q 467 315 526 376 q 323 254 408 254 z "},"โน":{"ha":482,"x_min":96,"x_max":450,"o":"m 347 132 q 193 270 290 172 q 96 402 96 368 q 189 525 96 436 q 386 697 282 614 l 450 640 q 304 410 342 486 q 410 189 339 314 l 347 132 z "},"โบ":{"ha":497,"x_min":75,"x_max":429,"o":"m 178 694 q 332 556 235 654 q 429 424 429 458 q 336 301 429 390 q 139 129 243 213 l 75 186 q 221 417 183 340 q 115 638 186 513 l 178 694 z "},"โฌ":{"ha":861,"x_min":13,"x_max":915,"o":"m 458 -17 q 235 74 325 -17 q 129 324 144 165 q 15 311 46 317 q 13 373 13 346 q 17 431 13 400 l 128 431 q 135 504 129 453 q 44 494 96 501 q 40 543 40 514 q 46 614 40 572 l 161 614 q 333 883 214 781 q 598 986 453 986 q 829 932 743 986 q 915 794 915 878 q 868 660 915 710 q 740 682 813 660 q 632 736 668 704 l 658 871 q 597 885 633 885 q 494 810 543 885 q 419 614 444 735 l 717 614 q 697 525 714 574 l 690 507 q 544 514 614 514 q 403 511 475 514 q 399 431 399 471 l 693 431 q 668 342 690 400 l 661 324 q 529 331 588 331 q 444 330 471 331 q 403 329 417 329 q 456 185 415 232 q 554 138 496 138 q 768 240 651 138 l 833 175 q 775 115 819 154 q 690 50 731 75 q 585 4 649 25 q 458 -17 522 -17 z "}}}
